G04 #@! TF.GenerationSoftware,KiCad,Pcbnew,(2017-06-21 revision 375ec9f)-master*
G04 #@! TF.CreationDate,2017-08-16T22:12:41-04:00*
G04 #@! TF.ProjectId,light_reactive_nodes,6C696768745F72656163746976655F6E,rev?*
G04 #@! TF.SameCoordinates,Original
G04 #@! TF.FileFunction,Legend,Top*
G04 #@! TF.FilePolarity,Positive*
%FSLAX46Y46*%
G04 Gerber Fmt 4.6, Leading zero omitted, Abs format (unit mm)*
G04 Created by KiCad (PCBNEW (2017-06-21 revision 375ec9f)-master) date Wed Aug 16 22:12:41 2017*
%MOMM*%
%LPD*%
G01*
G04 APERTURE LIST*
%ADD10C,0.100000*%
%ADD11C,0.120000*%
%ADD12C,0.150000*%
%ADD13C,0.152400*%
%ADD14C,0.125000*%
%ADD15C,0.050000*%
G04 APERTURE END LIST*
D10*
D11*
X103486522Y-118432574D02*
X101648045Y-120271051D01*
X101648045Y-120271051D02*
X103528949Y-122151955D01*
X103528949Y-122151955D02*
X105367426Y-120313478D01*
X105367426Y-120313478D02*
X103486522Y-118432574D01*
X104384548Y-117534548D02*
X105325000Y-116594096D01*
X105325000Y-116594096D02*
X106265452Y-117534548D01*
D12*
X109750000Y-126575000D02*
X108350000Y-126575000D01*
X109750000Y-131675000D02*
X113900000Y-131675000D01*
X109750000Y-126525000D02*
X113900000Y-126525000D01*
X109750000Y-131675000D02*
X109750000Y-131530000D01*
X113900000Y-131675000D02*
X113900000Y-131530000D01*
X113900000Y-126525000D02*
X113900000Y-126670000D01*
X109750000Y-126525000D02*
X109750000Y-126575000D01*
D11*
X110080487Y-132581751D02*
G75*
G03X110125000Y-136850000I1544513J-2118249D01*
G01*
X113153234Y-136865526D02*
G75*
G03X113175000Y-132550000I-1528234J2165526D01*
G01*
X113175000Y-136850000D02*
X110125000Y-136850000D01*
X113175000Y-132550000D02*
X110125000Y-132550000D01*
X118432574Y-120238478D02*
X120271051Y-122076955D01*
X120271051Y-122076955D02*
X122151955Y-120196051D01*
X122151955Y-120196051D02*
X120313478Y-118357574D01*
X120313478Y-118357574D02*
X118432574Y-120238478D01*
X117534548Y-119340452D02*
X116594096Y-118400000D01*
X116594096Y-118400000D02*
X117534548Y-117459548D01*
X117881192Y-136791726D02*
X119083274Y-137993808D01*
X119118629Y-137958452D02*
X121982412Y-135094670D01*
X117916548Y-136756371D02*
X120780330Y-133892588D01*
X103925000Y-127955000D02*
X105925000Y-127955000D01*
X105925000Y-130095000D02*
X103925000Y-130095000D01*
X110300000Y-125775000D02*
X109850000Y-125325000D01*
X109050000Y-124075000D02*
X109050000Y-122075000D01*
X109850000Y-120825000D02*
X110300000Y-120375000D01*
X110300000Y-120375000D02*
X113200000Y-120375000D01*
X113200000Y-120375000D02*
X113650000Y-120825000D01*
X114450000Y-122075000D02*
X114450000Y-124075000D01*
X113650000Y-125325000D02*
X113200000Y-125775000D01*
X113200000Y-125775000D02*
X110300000Y-125775000D01*
X117725000Y-123230000D02*
X119725000Y-123230000D01*
X119725000Y-125370000D02*
X117725000Y-125370000D01*
D13*
X104264600Y-122302600D02*
X105585400Y-122302600D01*
X105585400Y-122302600D02*
X105585400Y-125147400D01*
X105585400Y-125147400D02*
X104264600Y-125147400D01*
X104264600Y-125147400D02*
X104264600Y-122302600D01*
D11*
X104022056Y-116884315D02*
X102890685Y-115752944D01*
X102890685Y-115752944D02*
X101052208Y-117591421D01*
X104022056Y-116884315D02*
X102183579Y-118722792D01*
X104266726Y-137868808D02*
X105468808Y-136666726D01*
X105433452Y-136631371D02*
X102569670Y-133767588D01*
X104231371Y-137833452D02*
X101367588Y-134969670D01*
X119725000Y-132420000D02*
X117725000Y-132420000D01*
X117725000Y-130280000D02*
X119725000Y-130280000D01*
X103950000Y-130355000D02*
X105950000Y-130355000D01*
X105950000Y-132495000D02*
X103950000Y-132495000D01*
X105925000Y-127695000D02*
X103925000Y-127695000D01*
X103925000Y-125555000D02*
X105925000Y-125555000D01*
X117725000Y-127980000D02*
X119725000Y-127980000D01*
X119725000Y-130120000D02*
X117725000Y-130120000D01*
X117725000Y-125580000D02*
X119725000Y-125580000D01*
X119725000Y-127720000D02*
X117725000Y-127720000D01*
D13*
X105939600Y-132802600D02*
X107260400Y-132802600D01*
X107260400Y-132802600D02*
X107260400Y-135647400D01*
X107260400Y-135647400D02*
X105939600Y-135647400D01*
X105939600Y-135647400D02*
X105939600Y-132802600D01*
X117235400Y-132752600D02*
X117235400Y-135597400D01*
X115914600Y-132752600D02*
X117235400Y-132752600D01*
X115914600Y-135597400D02*
X115914600Y-132752600D01*
X117235400Y-135597400D02*
X115914600Y-135597400D01*
D11*
X110425000Y-119620000D02*
X108425000Y-119620000D01*
X108425000Y-117480000D02*
X110425000Y-117480000D01*
X113025000Y-119570000D02*
X115025000Y-119570000D01*
X115025000Y-117530000D02*
X113025000Y-117530000D01*
D14*
X105237521Y-121382360D02*
X104883967Y-121028807D01*
X105372208Y-121045643D01*
X105355372Y-120557402D01*
X105708925Y-120910956D01*
X106416032Y-120203849D02*
X106011971Y-120607910D01*
X106214001Y-120405879D02*
X105860448Y-120052326D01*
X105843612Y-120170177D01*
X105809940Y-120271192D01*
X105759433Y-120355372D01*
D12*
X110963095Y-128552380D02*
X110963095Y-129361904D01*
X111010714Y-129457142D01*
X111058333Y-129504761D01*
X111153571Y-129552380D01*
X111344047Y-129552380D01*
X111439285Y-129504761D01*
X111486904Y-129457142D01*
X111534523Y-129361904D01*
X111534523Y-128552380D01*
X112534523Y-129552380D02*
X111963095Y-129552380D01*
X112248809Y-129552380D02*
X112248809Y-128552380D01*
X112153571Y-128695238D01*
X112058333Y-128790476D01*
X111963095Y-128838095D01*
X111272619Y-134533333D02*
X111748809Y-134200000D01*
X111272619Y-133961904D02*
X112272619Y-133961904D01*
X112272619Y-134342857D01*
X112225000Y-134438095D01*
X112177380Y-134485714D01*
X112082142Y-134533333D01*
X111939285Y-134533333D01*
X111844047Y-134485714D01*
X111796428Y-134438095D01*
X111748809Y-134342857D01*
X111748809Y-133961904D01*
X111272619Y-135485714D02*
X111272619Y-134914285D01*
X111272619Y-135200000D02*
X112272619Y-135200000D01*
X112129761Y-135104761D01*
X112034523Y-135009523D01*
X111986904Y-134914285D01*
D14*
X117957910Y-120095685D02*
X117705372Y-120348223D01*
X117621192Y-120365059D01*
X117520177Y-120331387D01*
X117402326Y-120247208D01*
X117334982Y-120179864D01*
X118311463Y-121156345D02*
X117907402Y-120752284D01*
X118109433Y-120954314D02*
X118462986Y-120600761D01*
X118345135Y-120583925D01*
X118244120Y-120550253D01*
X118159940Y-120499746D01*
D12*
X119408206Y-135422969D02*
X120115312Y-134715862D01*
X120283671Y-134884221D01*
X120351015Y-135018908D01*
X120351015Y-135153595D01*
X120317343Y-135254610D01*
X120216328Y-135422969D01*
X120115312Y-135523984D01*
X119946954Y-135625000D01*
X119845938Y-135658671D01*
X119711251Y-135658671D01*
X119576564Y-135591328D01*
X119408206Y-135422969D01*
X120721404Y-135456641D02*
X120788748Y-135456641D01*
X120889763Y-135490312D01*
X121058122Y-135658671D01*
X121091793Y-135759687D01*
X121091793Y-135827030D01*
X121058122Y-135928045D01*
X120990778Y-135995389D01*
X120856091Y-136062732D01*
X120047969Y-136062732D01*
X120485702Y-136500465D01*
X105377380Y-129191666D02*
X104901190Y-129525000D01*
X105377380Y-129763095D02*
X104377380Y-129763095D01*
X104377380Y-129382142D01*
X104425000Y-129286904D01*
X104472619Y-129239285D01*
X104567857Y-129191666D01*
X104710714Y-129191666D01*
X104805952Y-129239285D01*
X104853571Y-129286904D01*
X104901190Y-129382142D01*
X104901190Y-129763095D01*
X104377380Y-128858333D02*
X104377380Y-128191666D01*
X105377380Y-128620238D01*
X110416666Y-123479761D02*
X110559523Y-123527380D01*
X110797619Y-123527380D01*
X110892857Y-123479761D01*
X110940476Y-123432142D01*
X110988095Y-123336904D01*
X110988095Y-123241666D01*
X110940476Y-123146428D01*
X110892857Y-123098809D01*
X110797619Y-123051190D01*
X110607142Y-123003571D01*
X110511904Y-122955952D01*
X110464285Y-122908333D01*
X110416666Y-122813095D01*
X110416666Y-122717857D01*
X110464285Y-122622619D01*
X110511904Y-122575000D01*
X110607142Y-122527380D01*
X110845238Y-122527380D01*
X110988095Y-122575000D01*
X111321428Y-122527380D02*
X111559523Y-123527380D01*
X111750000Y-122813095D01*
X111940476Y-123527380D01*
X112178571Y-122527380D01*
X113083333Y-123527380D02*
X112511904Y-123527380D01*
X112797619Y-123527380D02*
X112797619Y-122527380D01*
X112702380Y-122670238D01*
X112607142Y-122765476D01*
X112511904Y-122813095D01*
X119177380Y-124466666D02*
X118701190Y-124800000D01*
X119177380Y-125038095D02*
X118177380Y-125038095D01*
X118177380Y-124657142D01*
X118225000Y-124561904D01*
X118272619Y-124514285D01*
X118367857Y-124466666D01*
X118510714Y-124466666D01*
X118605952Y-124514285D01*
X118653571Y-124561904D01*
X118701190Y-124657142D01*
X118701190Y-125038095D01*
X119177380Y-123990476D02*
X119177380Y-123800000D01*
X119129761Y-123704761D01*
X119082142Y-123657142D01*
X118939285Y-123561904D01*
X118748809Y-123514285D01*
X118367857Y-123514285D01*
X118272619Y-123561904D01*
X118225000Y-123609523D01*
X118177380Y-123704761D01*
X118177380Y-123895238D01*
X118225000Y-123990476D01*
X118272619Y-124038095D01*
X118367857Y-124085714D01*
X118605952Y-124085714D01*
X118701190Y-124038095D01*
X118748809Y-123990476D01*
X118796428Y-123895238D01*
X118796428Y-123704761D01*
X118748809Y-123609523D01*
X118701190Y-123561904D01*
X118605952Y-123514285D01*
D15*
X102823018Y-123895307D02*
X102775365Y-123990615D01*
X102680057Y-124085922D01*
X102537095Y-124228884D01*
X102489442Y-124324191D01*
X102489442Y-124419499D01*
X102727711Y-124371845D02*
X102680057Y-124467153D01*
X102584749Y-124562460D01*
X102394134Y-124610114D01*
X102060557Y-124610114D01*
X101869942Y-124562460D01*
X101774635Y-124467153D01*
X101726981Y-124371845D01*
X101726981Y-124181230D01*
X101774635Y-124085922D01*
X101869942Y-123990615D01*
X102060557Y-123942961D01*
X102394134Y-123942961D01*
X102584749Y-123990615D01*
X102680057Y-124085922D01*
X102727711Y-124181230D01*
X102727711Y-124371845D01*
X101822288Y-123561730D02*
X101774635Y-123514077D01*
X101726981Y-123418769D01*
X101726981Y-123180500D01*
X101774635Y-123085192D01*
X101822288Y-123037539D01*
X101917596Y-122989885D01*
X102012904Y-122989885D01*
X102155865Y-123037539D01*
X102727711Y-123609384D01*
X102727711Y-122989885D01*
D12*
X103254340Y-119423164D02*
X102547233Y-118716058D01*
X102715592Y-118547699D01*
X102850279Y-118480355D01*
X102984966Y-118480355D01*
X103085981Y-118514027D01*
X103254340Y-118615042D01*
X103355355Y-118716058D01*
X103456371Y-118884416D01*
X103490042Y-118985432D01*
X103490042Y-119120119D01*
X103422699Y-119254806D01*
X103254340Y-119423164D01*
X104331836Y-118345668D02*
X103927775Y-118749729D01*
X104129806Y-118547699D02*
X103422699Y-117840592D01*
X103456371Y-118008951D01*
X103456371Y-118143638D01*
X103422699Y-118244653D01*
X102897969Y-136341793D02*
X102190862Y-135634687D01*
X102359221Y-135466328D01*
X102493908Y-135398984D01*
X102628595Y-135398984D01*
X102729610Y-135432656D01*
X102897969Y-135533671D01*
X102998984Y-135634687D01*
X103099999Y-135803045D01*
X103133671Y-135904061D01*
X103133671Y-136038748D01*
X103066328Y-136173435D01*
X102897969Y-136341793D01*
X102830625Y-134994923D02*
X103268358Y-134557190D01*
X103302030Y-135062267D01*
X103403045Y-134961251D01*
X103504061Y-134927580D01*
X103571404Y-134927580D01*
X103672419Y-134961251D01*
X103840778Y-135129610D01*
X103874450Y-135230625D01*
X103874450Y-135297969D01*
X103840778Y-135398984D01*
X103638748Y-135601015D01*
X103537732Y-135634687D01*
X103470389Y-135634687D01*
X119177380Y-131516666D02*
X118701190Y-131850000D01*
X119177380Y-132088095D02*
X118177380Y-132088095D01*
X118177380Y-131707142D01*
X118225000Y-131611904D01*
X118272619Y-131564285D01*
X118367857Y-131516666D01*
X118510714Y-131516666D01*
X118605952Y-131564285D01*
X118653571Y-131611904D01*
X118701190Y-131707142D01*
X118701190Y-132088095D01*
X118272619Y-131135714D02*
X118225000Y-131088095D01*
X118177380Y-130992857D01*
X118177380Y-130754761D01*
X118225000Y-130659523D01*
X118272619Y-130611904D01*
X118367857Y-130564285D01*
X118463095Y-130564285D01*
X118605952Y-130611904D01*
X119177380Y-131183333D01*
X119177380Y-130564285D01*
X105402380Y-131491666D02*
X104926190Y-131825000D01*
X105402380Y-132063095D02*
X104402380Y-132063095D01*
X104402380Y-131682142D01*
X104450000Y-131586904D01*
X104497619Y-131539285D01*
X104592857Y-131491666D01*
X104735714Y-131491666D01*
X104830952Y-131539285D01*
X104878571Y-131586904D01*
X104926190Y-131682142D01*
X104926190Y-132063095D01*
X104735714Y-130634523D02*
X105402380Y-130634523D01*
X104354761Y-130872619D02*
X105069047Y-131110714D01*
X105069047Y-130491666D01*
X105377380Y-126791666D02*
X104901190Y-127125000D01*
X105377380Y-127363095D02*
X104377380Y-127363095D01*
X104377380Y-126982142D01*
X104425000Y-126886904D01*
X104472619Y-126839285D01*
X104567857Y-126791666D01*
X104710714Y-126791666D01*
X104805952Y-126839285D01*
X104853571Y-126886904D01*
X104901190Y-126982142D01*
X104901190Y-127363095D01*
X104377380Y-125886904D02*
X104377380Y-126363095D01*
X104853571Y-126410714D01*
X104805952Y-126363095D01*
X104758333Y-126267857D01*
X104758333Y-126029761D01*
X104805952Y-125934523D01*
X104853571Y-125886904D01*
X104948809Y-125839285D01*
X105186904Y-125839285D01*
X105282142Y-125886904D01*
X105329761Y-125934523D01*
X105377380Y-126029761D01*
X105377380Y-126267857D01*
X105329761Y-126363095D01*
X105282142Y-126410714D01*
X119177380Y-129216666D02*
X118701190Y-129550000D01*
X119177380Y-129788095D02*
X118177380Y-129788095D01*
X118177380Y-129407142D01*
X118225000Y-129311904D01*
X118272619Y-129264285D01*
X118367857Y-129216666D01*
X118510714Y-129216666D01*
X118605952Y-129264285D01*
X118653571Y-129311904D01*
X118701190Y-129407142D01*
X118701190Y-129788095D01*
X118177380Y-128359523D02*
X118177380Y-128550000D01*
X118225000Y-128645238D01*
X118272619Y-128692857D01*
X118415476Y-128788095D01*
X118605952Y-128835714D01*
X118986904Y-128835714D01*
X119082142Y-128788095D01*
X119129761Y-128740476D01*
X119177380Y-128645238D01*
X119177380Y-128454761D01*
X119129761Y-128359523D01*
X119082142Y-128311904D01*
X118986904Y-128264285D01*
X118748809Y-128264285D01*
X118653571Y-128311904D01*
X118605952Y-128359523D01*
X118558333Y-128454761D01*
X118558333Y-128645238D01*
X118605952Y-128740476D01*
X118653571Y-128788095D01*
X118748809Y-128835714D01*
X119177380Y-126841666D02*
X118701190Y-127175000D01*
X119177380Y-127413095D02*
X118177380Y-127413095D01*
X118177380Y-127032142D01*
X118225000Y-126936904D01*
X118272619Y-126889285D01*
X118367857Y-126841666D01*
X118510714Y-126841666D01*
X118605952Y-126889285D01*
X118653571Y-126936904D01*
X118701190Y-127032142D01*
X118701190Y-127413095D01*
X118605952Y-126270238D02*
X118558333Y-126365476D01*
X118510714Y-126413095D01*
X118415476Y-126460714D01*
X118367857Y-126460714D01*
X118272619Y-126413095D01*
X118225000Y-126365476D01*
X118177380Y-126270238D01*
X118177380Y-126079761D01*
X118225000Y-125984523D01*
X118272619Y-125936904D01*
X118367857Y-125889285D01*
X118415476Y-125889285D01*
X118510714Y-125936904D01*
X118558333Y-125984523D01*
X118605952Y-126079761D01*
X118605952Y-126270238D01*
X118653571Y-126365476D01*
X118701190Y-126413095D01*
X118796428Y-126460714D01*
X118986904Y-126460714D01*
X119082142Y-126413095D01*
X119129761Y-126365476D01*
X119177380Y-126270238D01*
X119177380Y-126079761D01*
X119129761Y-125984523D01*
X119082142Y-125936904D01*
X118986904Y-125889285D01*
X118796428Y-125889285D01*
X118701190Y-125936904D01*
X118653571Y-125984523D01*
X118605952Y-126079761D01*
D15*
X105252380Y-133423809D02*
X105204761Y-133400000D01*
X105157142Y-133352380D01*
X105085714Y-133280952D01*
X105038095Y-133257142D01*
X104990476Y-133257142D01*
X105014285Y-133376190D02*
X104966666Y-133352380D01*
X104919047Y-133304761D01*
X104895238Y-133209523D01*
X104895238Y-133042857D01*
X104919047Y-132947619D01*
X104966666Y-132900000D01*
X105014285Y-132876190D01*
X105109523Y-132876190D01*
X105157142Y-132900000D01*
X105204761Y-132947619D01*
X105228571Y-133042857D01*
X105228571Y-133209523D01*
X105204761Y-133304761D01*
X105157142Y-133352380D01*
X105109523Y-133376190D01*
X105014285Y-133376190D01*
X105704761Y-133376190D02*
X105419047Y-133376190D01*
X105561904Y-133376190D02*
X105561904Y-132876190D01*
X105514285Y-132947619D01*
X105466666Y-132995238D01*
X105419047Y-133019047D01*
X117827380Y-133398809D02*
X117779761Y-133375000D01*
X117732142Y-133327380D01*
X117660714Y-133255952D01*
X117613095Y-133232142D01*
X117565476Y-133232142D01*
X117589285Y-133351190D02*
X117541666Y-133327380D01*
X117494047Y-133279761D01*
X117470238Y-133184523D01*
X117470238Y-133017857D01*
X117494047Y-132922619D01*
X117541666Y-132875000D01*
X117589285Y-132851190D01*
X117684523Y-132851190D01*
X117732142Y-132875000D01*
X117779761Y-132922619D01*
X117803571Y-133017857D01*
X117803571Y-133184523D01*
X117779761Y-133279761D01*
X117732142Y-133327380D01*
X117684523Y-133351190D01*
X117589285Y-133351190D01*
X117970238Y-132851190D02*
X118279761Y-132851190D01*
X118113095Y-133041666D01*
X118184523Y-133041666D01*
X118232142Y-133065476D01*
X118255952Y-133089285D01*
X118279761Y-133136904D01*
X118279761Y-133255952D01*
X118255952Y-133303571D01*
X118232142Y-133327380D01*
X118184523Y-133351190D01*
X118041666Y-133351190D01*
X117994047Y-133327380D01*
X117970238Y-133303571D01*
D12*
X109258333Y-120852380D02*
X108925000Y-120376190D01*
X108686904Y-120852380D02*
X108686904Y-119852380D01*
X109067857Y-119852380D01*
X109163095Y-119900000D01*
X109210714Y-119947619D01*
X109258333Y-120042857D01*
X109258333Y-120185714D01*
X109210714Y-120280952D01*
X109163095Y-120328571D01*
X109067857Y-120376190D01*
X108686904Y-120376190D01*
X109591666Y-119852380D02*
X110210714Y-119852380D01*
X109877380Y-120233333D01*
X110020238Y-120233333D01*
X110115476Y-120280952D01*
X110163095Y-120328571D01*
X110210714Y-120423809D01*
X110210714Y-120661904D01*
X110163095Y-120757142D01*
X110115476Y-120804761D01*
X110020238Y-120852380D01*
X109734523Y-120852380D01*
X109639285Y-120804761D01*
X109591666Y-120757142D01*
X113858333Y-117157142D02*
X113810714Y-117204761D01*
X113667857Y-117252380D01*
X113572619Y-117252380D01*
X113429761Y-117204761D01*
X113334523Y-117109523D01*
X113286904Y-117014285D01*
X113239285Y-116823809D01*
X113239285Y-116680952D01*
X113286904Y-116490476D01*
X113334523Y-116395238D01*
X113429761Y-116300000D01*
X113572619Y-116252380D01*
X113667857Y-116252380D01*
X113810714Y-116300000D01*
X113858333Y-116347619D01*
X114810714Y-117252380D02*
X114239285Y-117252380D01*
X114525000Y-117252380D02*
X114525000Y-116252380D01*
X114429761Y-116395238D01*
X114334523Y-116490476D01*
X114239285Y-116538095D01*
M02*
