G04 #@! TF.GenerationSoftware,KiCad,Pcbnew,(2017-06-21 revision 375ec9f)-master*
G04 #@! TF.CreationDate,2017-08-16T22:12:41-04:00*
G04 #@! TF.ProjectId,light_reactive_nodes,6C696768745F72656163746976655F6E,rev?*
G04 #@! TF.SameCoordinates,Original
G04 #@! TF.FileFunction,Legend,Bot*
G04 #@! TF.FilePolarity,Positive*
%FSLAX46Y46*%
G04 Gerber Fmt 4.6, Leading zero omitted, Abs format (unit mm)*
G04 Created by KiCad (PCBNEW (2017-06-21 revision 375ec9f)-master) date Wed Aug 16 22:12:41 2017*
%MOMM*%
%LPD*%
G01*
G04 APERTURE LIST*
%ADD10C,0.100000*%
%ADD11C,0.150000*%
%ADD12C,0.120000*%
G04 APERTURE END LIST*
D10*
D11*
X114603571Y-118752380D02*
X114889285Y-118752380D01*
X114889285Y-117752380D01*
X114403571Y-118752380D02*
X114403571Y-118085714D01*
X114403571Y-117752380D02*
X114432142Y-117800000D01*
X114403571Y-117847619D01*
X114375000Y-117800000D01*
X114403571Y-117752380D01*
X114403571Y-117847619D01*
X113860714Y-118085714D02*
X113860714Y-118895238D01*
X113889285Y-118990476D01*
X113917857Y-119038095D01*
X113975000Y-119085714D01*
X114060714Y-119085714D01*
X114117857Y-119038095D01*
X113860714Y-118704761D02*
X113917857Y-118752380D01*
X114032142Y-118752380D01*
X114089285Y-118704761D01*
X114117857Y-118657142D01*
X114146428Y-118561904D01*
X114146428Y-118276190D01*
X114117857Y-118180952D01*
X114089285Y-118133333D01*
X114032142Y-118085714D01*
X113917857Y-118085714D01*
X113860714Y-118133333D01*
X113575000Y-118752380D02*
X113575000Y-117752380D01*
X113317857Y-118752380D02*
X113317857Y-118228571D01*
X113346428Y-118133333D01*
X113403571Y-118085714D01*
X113489285Y-118085714D01*
X113546428Y-118133333D01*
X113575000Y-118180952D01*
X113117857Y-118085714D02*
X112889285Y-118085714D01*
X113032142Y-117752380D02*
X113032142Y-118609523D01*
X113003571Y-118704761D01*
X112946428Y-118752380D01*
X112889285Y-118752380D01*
X112689285Y-118371428D02*
X112232142Y-118371428D01*
X111603571Y-118752380D02*
X111803571Y-118276190D01*
X111946428Y-118752380D02*
X111946428Y-117752380D01*
X111717857Y-117752380D01*
X111660714Y-117800000D01*
X111632142Y-117847619D01*
X111603571Y-117942857D01*
X111603571Y-118085714D01*
X111632142Y-118180952D01*
X111660714Y-118228571D01*
X111717857Y-118276190D01*
X111946428Y-118276190D01*
X111117857Y-118704761D02*
X111175000Y-118752380D01*
X111289285Y-118752380D01*
X111346428Y-118704761D01*
X111375000Y-118609523D01*
X111375000Y-118228571D01*
X111346428Y-118133333D01*
X111289285Y-118085714D01*
X111175000Y-118085714D01*
X111117857Y-118133333D01*
X111089285Y-118228571D01*
X111089285Y-118323809D01*
X111375000Y-118419047D01*
X110575000Y-118752380D02*
X110575000Y-118228571D01*
X110603571Y-118133333D01*
X110660714Y-118085714D01*
X110775000Y-118085714D01*
X110832142Y-118133333D01*
X110575000Y-118704761D02*
X110632142Y-118752380D01*
X110775000Y-118752380D01*
X110832142Y-118704761D01*
X110860714Y-118609523D01*
X110860714Y-118514285D01*
X110832142Y-118419047D01*
X110775000Y-118371428D01*
X110632142Y-118371428D01*
X110575000Y-118323809D01*
X110032142Y-118704761D02*
X110089285Y-118752380D01*
X110203571Y-118752380D01*
X110260714Y-118704761D01*
X110289285Y-118657142D01*
X110317857Y-118561904D01*
X110317857Y-118276190D01*
X110289285Y-118180952D01*
X110260714Y-118133333D01*
X110203571Y-118085714D01*
X110089285Y-118085714D01*
X110032142Y-118133333D01*
X109860714Y-118085714D02*
X109632142Y-118085714D01*
X109775000Y-117752380D02*
X109775000Y-118609523D01*
X109746428Y-118704761D01*
X109689285Y-118752380D01*
X109632142Y-118752380D01*
X109432142Y-118752380D02*
X109432142Y-118085714D01*
X109432142Y-117752380D02*
X109460714Y-117800000D01*
X109432142Y-117847619D01*
X109403571Y-117800000D01*
X109432142Y-117752380D01*
X109432142Y-117847619D01*
X109203571Y-118085714D02*
X109060714Y-118752380D01*
X108917857Y-118085714D01*
X108460714Y-118704761D02*
X108517857Y-118752380D01*
X108632142Y-118752380D01*
X108689285Y-118704761D01*
X108717857Y-118609523D01*
X108717857Y-118228571D01*
X108689285Y-118133333D01*
X108632142Y-118085714D01*
X108517857Y-118085714D01*
X108460714Y-118133333D01*
X108432142Y-118228571D01*
X108432142Y-118323809D01*
X108717857Y-118419047D01*
X113417857Y-120402380D02*
X113417857Y-119402380D01*
X113075000Y-120402380D01*
X113075000Y-119402380D01*
X112703571Y-120402380D02*
X112760714Y-120354761D01*
X112789285Y-120307142D01*
X112817857Y-120211904D01*
X112817857Y-119926190D01*
X112789285Y-119830952D01*
X112760714Y-119783333D01*
X112703571Y-119735714D01*
X112617857Y-119735714D01*
X112560714Y-119783333D01*
X112532142Y-119830952D01*
X112503571Y-119926190D01*
X112503571Y-120211904D01*
X112532142Y-120307142D01*
X112560714Y-120354761D01*
X112617857Y-120402380D01*
X112703571Y-120402380D01*
X111989285Y-120402380D02*
X111989285Y-119402380D01*
X111989285Y-120354761D02*
X112046428Y-120402380D01*
X112160714Y-120402380D01*
X112217857Y-120354761D01*
X112246428Y-120307142D01*
X112275000Y-120211904D01*
X112275000Y-119926190D01*
X112246428Y-119830952D01*
X112217857Y-119783333D01*
X112160714Y-119735714D01*
X112046428Y-119735714D01*
X111989285Y-119783333D01*
X111475000Y-120354761D02*
X111532142Y-120402380D01*
X111646428Y-120402380D01*
X111703571Y-120354761D01*
X111732142Y-120259523D01*
X111732142Y-119878571D01*
X111703571Y-119783333D01*
X111646428Y-119735714D01*
X111532142Y-119735714D01*
X111475000Y-119783333D01*
X111446428Y-119878571D01*
X111446428Y-119973809D01*
X111732142Y-120069047D01*
X110817857Y-119402380D02*
X110617857Y-120402380D01*
X110417857Y-119402380D01*
X110246428Y-119497619D02*
X110217857Y-119450000D01*
X110160714Y-119402380D01*
X110017857Y-119402380D01*
X109960714Y-119450000D01*
X109932142Y-119497619D01*
X109903571Y-119592857D01*
X109903571Y-119688095D01*
X109932142Y-119830952D01*
X110275000Y-120402380D01*
X109903571Y-120402380D01*
X116489285Y-121766666D02*
X116203571Y-121766666D01*
X116546428Y-122052380D02*
X116346428Y-121052380D01*
X116146428Y-122052380D01*
X115689285Y-122052380D02*
X115689285Y-121528571D01*
X115717857Y-121433333D01*
X115775000Y-121385714D01*
X115889285Y-121385714D01*
X115946428Y-121433333D01*
X115689285Y-122004761D02*
X115746428Y-122052380D01*
X115889285Y-122052380D01*
X115946428Y-122004761D01*
X115975000Y-121909523D01*
X115975000Y-121814285D01*
X115946428Y-121719047D01*
X115889285Y-121671428D01*
X115746428Y-121671428D01*
X115689285Y-121623809D01*
X115403571Y-122052380D02*
X115403571Y-121385714D01*
X115403571Y-121576190D02*
X115375000Y-121480952D01*
X115346428Y-121433333D01*
X115289285Y-121385714D01*
X115232142Y-121385714D01*
X114946428Y-122052380D02*
X115003571Y-122004761D01*
X115032142Y-121957142D01*
X115060714Y-121861904D01*
X115060714Y-121576190D01*
X115032142Y-121480952D01*
X115003571Y-121433333D01*
X114946428Y-121385714D01*
X114860714Y-121385714D01*
X114803571Y-121433333D01*
X114775000Y-121480952D01*
X114746428Y-121576190D01*
X114746428Y-121861904D01*
X114775000Y-121957142D01*
X114803571Y-122004761D01*
X114860714Y-122052380D01*
X114946428Y-122052380D01*
X114489285Y-121385714D02*
X114489285Y-122052380D01*
X114489285Y-121480952D02*
X114460714Y-121433333D01*
X114403571Y-121385714D01*
X114317857Y-121385714D01*
X114260714Y-121433333D01*
X114232142Y-121528571D01*
X114232142Y-122052380D01*
X113489285Y-121528571D02*
X113289285Y-121528571D01*
X113203571Y-122052380D02*
X113489285Y-122052380D01*
X113489285Y-121052380D01*
X113203571Y-121052380D01*
X113003571Y-121385714D02*
X112860714Y-122052380D01*
X112717857Y-121385714D01*
X112232142Y-122052380D02*
X112232142Y-121528571D01*
X112260714Y-121433333D01*
X112317857Y-121385714D01*
X112432142Y-121385714D01*
X112489285Y-121433333D01*
X112232142Y-122004761D02*
X112289285Y-122052380D01*
X112432142Y-122052380D01*
X112489285Y-122004761D01*
X112517857Y-121909523D01*
X112517857Y-121814285D01*
X112489285Y-121719047D01*
X112432142Y-121671428D01*
X112289285Y-121671428D01*
X112232142Y-121623809D01*
X111946428Y-121385714D02*
X111946428Y-122052380D01*
X111946428Y-121480952D02*
X111917857Y-121433333D01*
X111860714Y-121385714D01*
X111775000Y-121385714D01*
X111717857Y-121433333D01*
X111689285Y-121528571D01*
X111689285Y-122052380D01*
X111403571Y-121671428D02*
X110946428Y-121671428D01*
X110460714Y-121528571D02*
X110375000Y-121576190D01*
X110346428Y-121623809D01*
X110317857Y-121719047D01*
X110317857Y-121861904D01*
X110346428Y-121957142D01*
X110375000Y-122004761D01*
X110432142Y-122052380D01*
X110660714Y-122052380D01*
X110660714Y-121052380D01*
X110460714Y-121052380D01*
X110403571Y-121100000D01*
X110375000Y-121147619D01*
X110346428Y-121242857D01*
X110346428Y-121338095D01*
X110375000Y-121433333D01*
X110403571Y-121480952D01*
X110460714Y-121528571D01*
X110660714Y-121528571D01*
X110060714Y-122052380D02*
X110060714Y-121385714D01*
X110060714Y-121576190D02*
X110032142Y-121480952D01*
X110003571Y-121433333D01*
X109946428Y-121385714D01*
X109889285Y-121385714D01*
X109603571Y-122052380D02*
X109660714Y-122004761D01*
X109689285Y-121957142D01*
X109717857Y-121861904D01*
X109717857Y-121576190D01*
X109689285Y-121480952D01*
X109660714Y-121433333D01*
X109603571Y-121385714D01*
X109517857Y-121385714D01*
X109460714Y-121433333D01*
X109432142Y-121480952D01*
X109403571Y-121576190D01*
X109403571Y-121861904D01*
X109432142Y-121957142D01*
X109460714Y-122004761D01*
X109517857Y-122052380D01*
X109603571Y-122052380D01*
X109203571Y-121385714D02*
X109089285Y-122052380D01*
X108975000Y-121576190D01*
X108860714Y-122052380D01*
X108746428Y-121385714D01*
X108517857Y-121385714D02*
X108517857Y-122052380D01*
X108517857Y-121480952D02*
X108489285Y-121433333D01*
X108432142Y-121385714D01*
X108346428Y-121385714D01*
X108289285Y-121433333D01*
X108260714Y-121528571D01*
X108260714Y-122052380D01*
X107975000Y-122052380D02*
X107975000Y-121385714D01*
X107975000Y-121052380D02*
X108003571Y-121100000D01*
X107975000Y-121147619D01*
X107946428Y-121100000D01*
X107975000Y-121052380D01*
X107975000Y-121147619D01*
X107689285Y-121385714D02*
X107689285Y-122052380D01*
X107689285Y-121480952D02*
X107660714Y-121433333D01*
X107603571Y-121385714D01*
X107517857Y-121385714D01*
X107460714Y-121433333D01*
X107432142Y-121528571D01*
X107432142Y-122052380D01*
X106889285Y-121385714D02*
X106889285Y-122195238D01*
X106917857Y-122290476D01*
X106946428Y-122338095D01*
X107003571Y-122385714D01*
X107089285Y-122385714D01*
X107146428Y-122338095D01*
X106889285Y-122004761D02*
X106946428Y-122052380D01*
X107060714Y-122052380D01*
X107117857Y-122004761D01*
X107146428Y-121957142D01*
X107175000Y-121861904D01*
X107175000Y-121576190D01*
X107146428Y-121480952D01*
X107117857Y-121433333D01*
X107060714Y-121385714D01*
X106946428Y-121385714D01*
X106889285Y-121433333D01*
D12*
X107605000Y-131140000D02*
X109275000Y-131140000D01*
X114475000Y-123930000D02*
X114475000Y-124460000D01*
X109275000Y-123930000D02*
X114475000Y-123930000D01*
X109275000Y-124460000D02*
X109275000Y-123930000D01*
X114475000Y-131670000D02*
X114475000Y-131140000D01*
X109275000Y-131670000D02*
X114475000Y-131670000D01*
X109275000Y-131140000D02*
X109275000Y-131670000D01*
M02*
