G04 #@! TF.GenerationSoftware,KiCad,Pcbnew,(2017-06-21 revision 375ec9f)-master*
G04 #@! TF.CreationDate,2017-08-16T22:12:41-04:00*
G04 #@! TF.ProjectId,light_reactive_nodes,6C696768745F72656163746976655F6E,rev?*
G04 #@! TF.SameCoordinates,Original
G04 #@! TF.FileFunction,Copper,L1,Top,Signal*
G04 #@! TF.FilePolarity,Positive*
%FSLAX46Y46*%
G04 Gerber Fmt 4.6, Leading zero omitted, Abs format (unit mm)*
G04 Created by KiCad (PCBNEW (2017-06-21 revision 375ec9f)-master) date Wed Aug 16 22:12:41 2017*
%MOMM*%
%LPD*%
G01*
G04 APERTURE LIST*
%ADD10C,0.100000*%
%ADD11C,1.700000*%
%ADD12C,1.700000*%
%ADD13R,1.550000X0.600000*%
%ADD14C,1.500000*%
%ADD15R,0.900000X1.700000*%
%ADD16R,1.800000X1.100000*%
%ADD17R,1.400000X1.000000*%
%ADD18C,0.800000*%
%ADD19R,1.000000X1.600000*%
%ADD20C,0.500000*%
%ADD21C,0.250000*%
%ADD22C,0.254000*%
G04 APERTURE END LIST*
D10*
D11*
X105325000Y-118475000D03*
D10*
G36*
X104122918Y-118475000D02*
X105325000Y-117272918D01*
X106527082Y-118475000D01*
X105325000Y-119677082D01*
X104122918Y-118475000D01*
X104122918Y-118475000D01*
G37*
D11*
X103528949Y-120271051D03*
D12*
X103528949Y-120271051D02*
X103528949Y-120271051D01*
D13*
X114525000Y-127195000D03*
X114525000Y-128465000D03*
X114525000Y-129735000D03*
X114525000Y-131005000D03*
X109125000Y-131005000D03*
X109125000Y-129735000D03*
X109125000Y-128465000D03*
X109125000Y-127195000D03*
D14*
X109925000Y-134700000D03*
X113325000Y-134700000D03*
D11*
X118475000Y-118400000D03*
D10*
G36*
X118475000Y-119602082D02*
X117272918Y-118400000D01*
X118475000Y-117197918D01*
X119677082Y-118400000D01*
X118475000Y-119602082D01*
X118475000Y-119602082D01*
G37*
D11*
X120271051Y-120196051D03*
D12*
X120271051Y-120196051D02*
X120271051Y-120196051D01*
D14*
X121416726Y-134458274D03*
D10*
G36*
X121416726Y-133397614D02*
X122477386Y-134458274D01*
X121416726Y-135518934D01*
X120356066Y-134458274D01*
X121416726Y-133397614D01*
X121416726Y-133397614D01*
G37*
D14*
X119083274Y-136791726D03*
D10*
G36*
X119083274Y-135731066D02*
X120143934Y-136791726D01*
X119083274Y-137852386D01*
X118022614Y-136791726D01*
X119083274Y-135731066D01*
X119083274Y-135731066D01*
G37*
D15*
X106375000Y-129025000D03*
X103475000Y-129025000D03*
D16*
X108650000Y-121225000D03*
X114850000Y-121225000D03*
X108650000Y-124925000D03*
X114850000Y-124925000D03*
D15*
X120175000Y-124300000D03*
X117275000Y-124300000D03*
D17*
X103825000Y-123725000D03*
X106025000Y-122775000D03*
X106025000Y-124675000D03*
D18*
X103067462Y-116707538D03*
D10*
G36*
X103032107Y-116106497D02*
X103668503Y-116742893D01*
X103102817Y-117308579D01*
X102466421Y-116672183D01*
X103032107Y-116106497D01*
X103032107Y-116106497D01*
G37*
D18*
X101582538Y-118192462D03*
D10*
G36*
X101547183Y-117591421D02*
X102183579Y-118227817D01*
X101617893Y-118793503D01*
X100981497Y-118157107D01*
X101547183Y-117591421D01*
X101547183Y-117591421D01*
G37*
D14*
X101933274Y-134333274D03*
D10*
G36*
X100872614Y-134333274D02*
X101933274Y-133272614D01*
X102993934Y-134333274D01*
X101933274Y-135393934D01*
X100872614Y-134333274D01*
X100872614Y-134333274D01*
G37*
D14*
X104266726Y-136666726D03*
D10*
G36*
X103206066Y-136666726D02*
X104266726Y-135606066D01*
X105327386Y-136666726D01*
X104266726Y-137727386D01*
X103206066Y-136666726D01*
X103206066Y-136666726D01*
G37*
D15*
X117275000Y-131350000D03*
X120175000Y-131350000D03*
X106400000Y-131425000D03*
X103500000Y-131425000D03*
X103475000Y-126625000D03*
X106375000Y-126625000D03*
X120175000Y-129050000D03*
X117275000Y-129050000D03*
X120175000Y-126650000D03*
X117275000Y-126650000D03*
D17*
X105500000Y-134225000D03*
X107700000Y-133275000D03*
X107700000Y-135175000D03*
X115475000Y-133225000D03*
X115475000Y-135125000D03*
X117675000Y-134175000D03*
D15*
X107975000Y-118550000D03*
X110875000Y-118550000D03*
D19*
X115525000Y-118550000D03*
X112525000Y-118550000D03*
D18*
X121424990Y-129125000D03*
X113375000Y-122825000D03*
X117400000Y-135675000D03*
X118325000Y-120675000D03*
X111000000Y-120425000D03*
X116000000Y-126360002D03*
X111050000Y-123625000D03*
X111200000Y-126500000D03*
X112050000Y-130550000D03*
X111325000Y-127800002D03*
X111524998Y-129150000D03*
X110200000Y-121925000D03*
X118700000Y-128825000D03*
X119075000Y-133375000D03*
X107400000Y-136525000D03*
X103125000Y-132900000D03*
D20*
X120175000Y-129050000D02*
X121349990Y-129050000D01*
X121349990Y-129050000D02*
X121424990Y-129125000D01*
X115525000Y-118550000D02*
X118325000Y-118550000D01*
X118325000Y-118550000D02*
X118475000Y-118400000D01*
X113325000Y-122775000D02*
X113375000Y-122825000D01*
X111600000Y-122775000D02*
X113325000Y-122775000D01*
X106025000Y-122775000D02*
X111600000Y-122775000D01*
D21*
X118350000Y-118525000D02*
X118475000Y-118400000D01*
D20*
X113805000Y-133455000D02*
X115475000Y-135125000D01*
X112050000Y-133455000D02*
X113805000Y-133455000D01*
X109600000Y-131005000D02*
X112050000Y-133455000D01*
X109125000Y-131005000D02*
X109600000Y-131005000D01*
X115475000Y-135125000D02*
X116850000Y-135125000D01*
X116850000Y-135125000D02*
X117400000Y-135675000D01*
X120175000Y-131350000D02*
X120175000Y-129050000D01*
X120175000Y-129050000D02*
X120250000Y-129050000D01*
X109125000Y-131005000D02*
X108650000Y-131005000D01*
X108650000Y-131005000D02*
X107700000Y-131955000D01*
X107700000Y-131955000D02*
X107700000Y-133275000D01*
X118325000Y-120675000D02*
X118325000Y-118550000D01*
X112525000Y-118550000D02*
X110875000Y-118550000D01*
X110875000Y-118550000D02*
X110875000Y-120300000D01*
X110875000Y-120300000D02*
X111000000Y-120425000D01*
X110900000Y-118525000D02*
X110875000Y-118550000D01*
D21*
X112450000Y-118550000D02*
X112475000Y-118525000D01*
D20*
X114850000Y-124925000D02*
X114850000Y-125210002D01*
X114850000Y-125210002D02*
X116000000Y-126360002D01*
X108650000Y-124925000D02*
X108075000Y-124925000D01*
X108075000Y-124925000D02*
X106375000Y-126625000D01*
X114850000Y-124925000D02*
X112350000Y-124925000D01*
X112350000Y-124925000D02*
X111050000Y-123625000D01*
X114850000Y-124925000D02*
X116650000Y-124925000D01*
X116650000Y-124925000D02*
X117275000Y-124300000D01*
X114850000Y-124925000D02*
X114850000Y-126870000D01*
X114850000Y-126870000D02*
X114525000Y-127195000D01*
X120271051Y-120196051D02*
X117275000Y-123192102D01*
X117275000Y-123192102D02*
X117275000Y-124300000D01*
X111050000Y-123625000D02*
X109950000Y-123625000D01*
X109950000Y-123625000D02*
X108650000Y-124925000D01*
D21*
X106750000Y-126825000D02*
X106550000Y-126625000D01*
X108500000Y-125075000D02*
X108650000Y-124925000D01*
X109125000Y-127195000D02*
X110505000Y-127195000D01*
X110505000Y-127195000D02*
X111200000Y-126500000D01*
X114525000Y-131005000D02*
X112505000Y-131005000D01*
X112505000Y-131005000D02*
X112050000Y-130550000D01*
X114525000Y-131005000D02*
X114955000Y-131005000D01*
X114405000Y-131125000D02*
X114525000Y-131005000D01*
X114525000Y-131005000D02*
X116930000Y-131005000D01*
X116930000Y-131005000D02*
X117275000Y-131350000D01*
X109925000Y-134700000D02*
X109925000Y-134100000D01*
X111989998Y-128465000D02*
X111724999Y-128200001D01*
X111724999Y-128200001D02*
X111325000Y-127800002D01*
X114525000Y-128465000D02*
X111989998Y-128465000D01*
X115315000Y-128150000D02*
X116175000Y-128150000D01*
X116175000Y-128150000D02*
X117275000Y-127050000D01*
X117275000Y-127050000D02*
X117275000Y-126650000D01*
X114525000Y-128465000D02*
X115000000Y-128465000D01*
X115000000Y-128465000D02*
X115315000Y-128150000D01*
X111924997Y-129549999D02*
X111524998Y-129150000D01*
X112109998Y-129735000D02*
X111924997Y-129549999D01*
X114525000Y-129735000D02*
X112109998Y-129735000D01*
X110200000Y-121925000D02*
X109350000Y-121925000D01*
X109350000Y-121925000D02*
X108650000Y-121225000D01*
X108650000Y-121225000D02*
X112048002Y-121225000D01*
X112048002Y-121225000D02*
X114850000Y-121225000D01*
X114525000Y-129735000D02*
X116590000Y-129735000D01*
X116590000Y-129735000D02*
X117275000Y-129050000D01*
X114625000Y-121000000D02*
X114850000Y-121225000D01*
D20*
X103528949Y-120271051D02*
X103528949Y-123428949D01*
X103528949Y-123428949D02*
X103825000Y-123725000D01*
D21*
X101582538Y-118192462D02*
X103528949Y-120138873D01*
X103528949Y-120138873D02*
X103528949Y-120271051D01*
D20*
X119083274Y-135583274D02*
X119083274Y-136791726D01*
X117675000Y-134175000D02*
X119083274Y-135583274D01*
X118700000Y-128825000D02*
X118700000Y-125075000D01*
X118700000Y-125075000D02*
X119475000Y-124300000D01*
X119475000Y-124300000D02*
X120175000Y-124300000D01*
X121416726Y-134458274D02*
X120258274Y-134458274D01*
X120258274Y-134458274D02*
X119150000Y-133350000D01*
X105025000Y-127225000D02*
X105025000Y-132689998D01*
X103381724Y-134333274D02*
X103093934Y-134333274D01*
X105025000Y-132689998D02*
X103381724Y-134333274D01*
X103093934Y-134333274D02*
X101933274Y-134333274D01*
X103475000Y-126625000D02*
X104425000Y-126625000D01*
X104425000Y-126625000D02*
X105025000Y-127225000D01*
X104266726Y-136666726D02*
X104266726Y-135458274D01*
X104266726Y-135458274D02*
X105500000Y-134225000D01*
D21*
X107550000Y-130975000D02*
X107550000Y-130835000D01*
X108650000Y-129735000D02*
X109125000Y-129735000D01*
X107550000Y-130835000D02*
X108650000Y-129735000D01*
X106400000Y-131425000D02*
X107100000Y-131425000D01*
X107100000Y-131425000D02*
X107550000Y-130975000D01*
X107175000Y-129025000D02*
X107735000Y-128465000D01*
X107735000Y-128465000D02*
X109125000Y-128465000D01*
X106375000Y-129025000D02*
X107175000Y-129025000D01*
X107400000Y-136525000D02*
X107400000Y-135475000D01*
X107400000Y-135475000D02*
X107700000Y-135175000D01*
X103500000Y-131425000D02*
X103500000Y-132525000D01*
X103500000Y-132525000D02*
X103125000Y-132900000D01*
X106025000Y-124675000D02*
X103200000Y-124675000D01*
X103200000Y-124675000D02*
X102325000Y-125550000D01*
X102325000Y-125550000D02*
X102325000Y-127475000D01*
X102325000Y-127475000D02*
X103475000Y-128625000D01*
X103475000Y-128625000D02*
X103475000Y-129025000D01*
X122150000Y-127925000D02*
X122150000Y-131650000D01*
X121150001Y-132649999D02*
X117000001Y-132649999D01*
X120875000Y-126650000D02*
X122150000Y-127925000D01*
X122150000Y-131650000D02*
X121150001Y-132649999D01*
X120175000Y-126650000D02*
X120875000Y-126650000D01*
X117000001Y-132649999D02*
X116425000Y-133225000D01*
X116425000Y-133225000D02*
X115475000Y-133225000D01*
D20*
X107975000Y-118550000D02*
X105400000Y-118550000D01*
X105400000Y-118550000D02*
X105325000Y-118475000D01*
D21*
X107900000Y-118475000D02*
X107975000Y-118550000D01*
X103067462Y-116707538D02*
X104834924Y-118475000D01*
X104834924Y-118475000D02*
X105325000Y-118475000D01*
D22*
G36*
X121047005Y-115355498D02*
X122460221Y-116299779D01*
X123404502Y-117712997D01*
X123750000Y-119449931D01*
X123750000Y-134550069D01*
X123404502Y-136287003D01*
X122460221Y-137700221D01*
X121047005Y-138644502D01*
X119310069Y-138990000D01*
X104209931Y-138990000D01*
X102472997Y-138644502D01*
X101059779Y-137700221D01*
X100115498Y-136287005D01*
X99770000Y-134550069D01*
X99770000Y-134333274D01*
X100225174Y-134333274D01*
X100274457Y-134581039D01*
X100414805Y-134791083D01*
X101475465Y-135851743D01*
X101685509Y-135992091D01*
X101933274Y-136041374D01*
X102181039Y-135992091D01*
X102391083Y-135851743D01*
X103024552Y-135218274D01*
X103381719Y-135218274D01*
X103381724Y-135218275D01*
X103431432Y-135208387D01*
X103381725Y-135458274D01*
X103381726Y-135458279D01*
X103381726Y-135575448D01*
X102748257Y-136208917D01*
X102607909Y-136418961D01*
X102558626Y-136666726D01*
X102607909Y-136914491D01*
X102748257Y-137124535D01*
X103808917Y-138185195D01*
X104018961Y-138325543D01*
X104266726Y-138374826D01*
X104514491Y-138325543D01*
X104724535Y-138185195D01*
X105785195Y-137124535D01*
X105925543Y-136914491D01*
X105974826Y-136666726D01*
X105925543Y-136418961D01*
X105785195Y-136208917D01*
X105276429Y-135700151D01*
X105604139Y-135372440D01*
X106200000Y-135372440D01*
X106352560Y-135342094D01*
X106352560Y-135675000D01*
X106401843Y-135922765D01*
X106480505Y-136040490D01*
X106365180Y-136318223D01*
X106364821Y-136729971D01*
X106522058Y-137110515D01*
X106812954Y-137401919D01*
X107193223Y-137559820D01*
X107604971Y-137560179D01*
X107985515Y-137402942D01*
X108276919Y-137112046D01*
X108434820Y-136731777D01*
X108435179Y-136320029D01*
X108433428Y-136315791D01*
X108647765Y-136273157D01*
X108857809Y-136132809D01*
X108998157Y-135922765D01*
X109029808Y-135763642D01*
X109139436Y-135873461D01*
X109648298Y-136084759D01*
X110199285Y-136085240D01*
X110708515Y-135874831D01*
X111098461Y-135485564D01*
X111309759Y-134976702D01*
X111310240Y-134425715D01*
X111099831Y-133916485D01*
X110710564Y-133526539D01*
X110201702Y-133315241D01*
X109650715Y-133314760D01*
X109141485Y-133525169D01*
X109035000Y-133631469D01*
X109035000Y-133560750D01*
X108876250Y-133402000D01*
X107827000Y-133402000D01*
X107827000Y-133422000D01*
X107573000Y-133422000D01*
X107573000Y-133402000D01*
X107553000Y-133402000D01*
X107553000Y-133148000D01*
X107573000Y-133148000D01*
X107573000Y-132298750D01*
X107827000Y-132298750D01*
X107827000Y-133148000D01*
X108876250Y-133148000D01*
X109035000Y-132989250D01*
X109035000Y-132648691D01*
X108938327Y-132415302D01*
X108759699Y-132236673D01*
X108526310Y-132140000D01*
X107985750Y-132140000D01*
X107827000Y-132298750D01*
X107573000Y-132298750D01*
X107497440Y-132223190D01*
X107497440Y-132055920D01*
X107637401Y-131962401D01*
X107873388Y-131726414D01*
X107990302Y-131843327D01*
X108223691Y-131940000D01*
X108839250Y-131940000D01*
X108998000Y-131781250D01*
X108998000Y-131132000D01*
X109252000Y-131132000D01*
X109252000Y-131781250D01*
X109410750Y-131940000D01*
X110026309Y-131940000D01*
X110259698Y-131843327D01*
X110438327Y-131664699D01*
X110535000Y-131431310D01*
X110535000Y-131290750D01*
X110376250Y-131132000D01*
X109252000Y-131132000D01*
X108998000Y-131132000D01*
X108978000Y-131132000D01*
X108978000Y-130878000D01*
X108998000Y-130878000D01*
X108998000Y-130858000D01*
X109252000Y-130858000D01*
X109252000Y-130878000D01*
X110376250Y-130878000D01*
X110535000Y-130719250D01*
X110535000Y-130578690D01*
X110445232Y-130361972D01*
X110498157Y-130282765D01*
X110547440Y-130035000D01*
X110547440Y-129494425D01*
X110647056Y-129735515D01*
X110937952Y-130026919D01*
X111115848Y-130100788D01*
X111015180Y-130343223D01*
X111014821Y-130754971D01*
X111172058Y-131135515D01*
X111462954Y-131426919D01*
X111843223Y-131584820D01*
X112031329Y-131584984D01*
X112214160Y-131707148D01*
X112505000Y-131765000D01*
X113295470Y-131765000D01*
X113502235Y-131903157D01*
X113750000Y-131952440D01*
X115300000Y-131952440D01*
X115547765Y-131903157D01*
X115754530Y-131765000D01*
X116177560Y-131765000D01*
X116177560Y-132078069D01*
X116175000Y-132077560D01*
X114775000Y-132077560D01*
X114527235Y-132126843D01*
X114317191Y-132267191D01*
X114176843Y-132477235D01*
X114127560Y-132725000D01*
X114127560Y-133543565D01*
X114110564Y-133526539D01*
X113601702Y-133315241D01*
X113050715Y-133314760D01*
X112541485Y-133525169D01*
X112151539Y-133914436D01*
X111940241Y-134423298D01*
X111939760Y-134974285D01*
X112150169Y-135483515D01*
X112539436Y-135873461D01*
X113048298Y-136084759D01*
X113599285Y-136085240D01*
X114108515Y-135874831D01*
X114166987Y-135816461D01*
X114236673Y-135984698D01*
X114415301Y-136163327D01*
X114648690Y-136260000D01*
X115189250Y-136260000D01*
X115348000Y-136101250D01*
X115348000Y-135252000D01*
X115328000Y-135252000D01*
X115328000Y-134998000D01*
X115348000Y-134998000D01*
X115348000Y-134978000D01*
X115602000Y-134978000D01*
X115602000Y-134998000D01*
X115622000Y-134998000D01*
X115622000Y-135252000D01*
X115602000Y-135252000D01*
X115602000Y-136101250D01*
X115760750Y-136260000D01*
X116301310Y-136260000D01*
X116534699Y-136163327D01*
X116713327Y-135984698D01*
X116810000Y-135751309D01*
X116810000Y-135410750D01*
X116651252Y-135252002D01*
X116695575Y-135252002D01*
X116727235Y-135273157D01*
X116975000Y-135322440D01*
X117570860Y-135322440D01*
X118073571Y-135825151D01*
X117564805Y-136333917D01*
X117424457Y-136543961D01*
X117375174Y-136791726D01*
X117424457Y-137039491D01*
X117564805Y-137249535D01*
X118625465Y-138310195D01*
X118835509Y-138450543D01*
X119083274Y-138499826D01*
X119331039Y-138450543D01*
X119541083Y-138310195D01*
X120601743Y-137249535D01*
X120742091Y-137039491D01*
X120791374Y-136791726D01*
X120742091Y-136543961D01*
X120601743Y-136333917D01*
X119968274Y-135700448D01*
X119968274Y-135583279D01*
X119968275Y-135583274D01*
X119905224Y-135266302D01*
X119915483Y-135273157D01*
X119919599Y-135275907D01*
X120258274Y-135343275D01*
X120258279Y-135343274D01*
X120325448Y-135343274D01*
X120958917Y-135976743D01*
X121168961Y-136117091D01*
X121416726Y-136166374D01*
X121664491Y-136117091D01*
X121874535Y-135976743D01*
X122935195Y-134916083D01*
X123075543Y-134706039D01*
X123124826Y-134458274D01*
X123075543Y-134210509D01*
X122935195Y-134000465D01*
X121904766Y-132970036D01*
X122687401Y-132187401D01*
X122852148Y-131940839D01*
X122910000Y-131650000D01*
X122910000Y-127925000D01*
X122878341Y-127765839D01*
X122852148Y-127634160D01*
X122687401Y-127387599D01*
X121412401Y-126112599D01*
X121272440Y-126019080D01*
X121272440Y-125800000D01*
X121223157Y-125552235D01*
X121171550Y-125475000D01*
X121223157Y-125397765D01*
X121272440Y-125150000D01*
X121272440Y-123450000D01*
X121223157Y-123202235D01*
X121082809Y-122992191D01*
X120872765Y-122851843D01*
X120625000Y-122802560D01*
X119725000Y-122802560D01*
X119477235Y-122851843D01*
X119267191Y-122992191D01*
X119126843Y-123202235D01*
X119077560Y-123450000D01*
X119077560Y-123521632D01*
X119063875Y-123530776D01*
X118849210Y-123674210D01*
X118849208Y-123674213D01*
X118372440Y-124150980D01*
X118372440Y-123450000D01*
X118355226Y-123363456D01*
X120055785Y-121662897D01*
X120250479Y-121701624D01*
X120818764Y-121588584D01*
X121300533Y-121266677D01*
X121341676Y-121225533D01*
X121663584Y-120743764D01*
X121776623Y-120175479D01*
X121663584Y-119607195D01*
X121341676Y-119125426D01*
X120859907Y-118803518D01*
X120291623Y-118690479D01*
X120239811Y-118700785D01*
X120312081Y-118526310D01*
X120312082Y-118273691D01*
X120215409Y-118040302D01*
X119727109Y-117552002D01*
X119502603Y-117552002D01*
X118654605Y-118400000D01*
X118668748Y-118414143D01*
X118489143Y-118593748D01*
X118475000Y-118579605D01*
X117627002Y-119427603D01*
X117627002Y-119652109D01*
X118115302Y-120140409D01*
X118348691Y-120237082D01*
X118601310Y-120237081D01*
X118775784Y-120164811D01*
X118765478Y-120216623D01*
X118804205Y-120411317D01*
X116649210Y-122566312D01*
X116457367Y-122853427D01*
X116457367Y-122853428D01*
X116439356Y-122943971D01*
X116367191Y-122992191D01*
X116226843Y-123202235D01*
X116177560Y-123450000D01*
X116177560Y-123896979D01*
X115997765Y-123776843D01*
X115750000Y-123727560D01*
X113950000Y-123727560D01*
X113702235Y-123776843D01*
X113492191Y-123917191D01*
X113410132Y-124040000D01*
X112716579Y-124040000D01*
X112077131Y-123400551D01*
X111927942Y-123039485D01*
X111637046Y-122748081D01*
X111256777Y-122590180D01*
X110998874Y-122589955D01*
X111076919Y-122512046D01*
X111234820Y-122131777D01*
X111234948Y-121985000D01*
X113344331Y-121985000D01*
X113351843Y-122022765D01*
X113492191Y-122232809D01*
X113702235Y-122373157D01*
X113950000Y-122422440D01*
X115750000Y-122422440D01*
X115997765Y-122373157D01*
X116207809Y-122232809D01*
X116348157Y-122022765D01*
X116397440Y-121775000D01*
X116397440Y-120675000D01*
X116348157Y-120427235D01*
X116207809Y-120217191D01*
X115997765Y-120076843D01*
X115750000Y-120027560D01*
X113950000Y-120027560D01*
X113702235Y-120076843D01*
X113492191Y-120217191D01*
X113351843Y-120427235D01*
X113344331Y-120465000D01*
X112034965Y-120465000D01*
X112035179Y-120220029D01*
X111935883Y-119979714D01*
X112025000Y-119997440D01*
X113025000Y-119997440D01*
X113272765Y-119948157D01*
X113482809Y-119807809D01*
X113623157Y-119597765D01*
X113672440Y-119350000D01*
X113672440Y-118835750D01*
X114390000Y-118835750D01*
X114390000Y-119476310D01*
X114486673Y-119709699D01*
X114665302Y-119888327D01*
X114898691Y-119985000D01*
X115239250Y-119985000D01*
X115398000Y-119826250D01*
X115398000Y-118677000D01*
X114548750Y-118677000D01*
X114390000Y-118835750D01*
X113672440Y-118835750D01*
X113672440Y-117750000D01*
X113647316Y-117623690D01*
X114390000Y-117623690D01*
X114390000Y-118264250D01*
X114548750Y-118423000D01*
X115398000Y-118423000D01*
X115398000Y-117273750D01*
X115652000Y-117273750D01*
X115652000Y-118423000D01*
X115672000Y-118423000D01*
X115672000Y-118677000D01*
X115652000Y-118677000D01*
X115652000Y-119826250D01*
X115810750Y-119985000D01*
X116151309Y-119985000D01*
X116384698Y-119888327D01*
X116563327Y-119709699D01*
X116660000Y-119476310D01*
X116660000Y-118835750D01*
X116501252Y-118677002D01*
X116660000Y-118677002D01*
X116660000Y-118579620D01*
X116734591Y-118759698D01*
X117222891Y-119247998D01*
X117447397Y-119247998D01*
X118295395Y-118400000D01*
X117447397Y-117552002D01*
X117222891Y-117552002D01*
X116734592Y-118040301D01*
X116660000Y-118220382D01*
X116660000Y-117623690D01*
X116563327Y-117390301D01*
X116384698Y-117211673D01*
X116230715Y-117147891D01*
X117627002Y-117147891D01*
X117627002Y-117372397D01*
X118475000Y-118220395D01*
X119322998Y-117372397D01*
X119322998Y-117147891D01*
X118834698Y-116659591D01*
X118601309Y-116562918D01*
X118348690Y-116562919D01*
X118115301Y-116659592D01*
X117627002Y-117147891D01*
X116230715Y-117147891D01*
X116151309Y-117115000D01*
X115810750Y-117115000D01*
X115652000Y-117273750D01*
X115398000Y-117273750D01*
X115239250Y-117115000D01*
X114898691Y-117115000D01*
X114665302Y-117211673D01*
X114486673Y-117390301D01*
X114390000Y-117623690D01*
X113647316Y-117623690D01*
X113623157Y-117502235D01*
X113482809Y-117292191D01*
X113272765Y-117151843D01*
X113025000Y-117102560D01*
X112025000Y-117102560D01*
X111777235Y-117151843D01*
X111712415Y-117195155D01*
X111572765Y-117101843D01*
X111325000Y-117052560D01*
X110425000Y-117052560D01*
X110177235Y-117101843D01*
X109967191Y-117242191D01*
X109826843Y-117452235D01*
X109777560Y-117700000D01*
X109777560Y-119400000D01*
X109826843Y-119647765D01*
X109967191Y-119857809D01*
X109990000Y-119873050D01*
X109990000Y-120158450D01*
X109974774Y-120195118D01*
X109797765Y-120076843D01*
X109550000Y-120027560D01*
X108524945Y-120027560D01*
X108672765Y-119998157D01*
X108882809Y-119857809D01*
X109023157Y-119647765D01*
X109072440Y-119400000D01*
X109072440Y-117700000D01*
X109023157Y-117452235D01*
X108882809Y-117242191D01*
X108672765Y-117101843D01*
X108425000Y-117052560D01*
X107525000Y-117052560D01*
X107277235Y-117101843D01*
X107067191Y-117242191D01*
X106926843Y-117452235D01*
X106884522Y-117665000D01*
X106632700Y-117665000D01*
X105782809Y-116815109D01*
X105572765Y-116674761D01*
X105325000Y-116625478D01*
X105077235Y-116674761D01*
X104867191Y-116815109D01*
X104558513Y-117123787D01*
X104292994Y-116858268D01*
X104315943Y-116742893D01*
X104266660Y-116495128D01*
X104126312Y-116285084D01*
X103489916Y-115648688D01*
X103279872Y-115508340D01*
X103032107Y-115459057D01*
X102784342Y-115508340D01*
X102574298Y-115648688D01*
X102008612Y-116214374D01*
X101868264Y-116424418D01*
X101818981Y-116672183D01*
X101868264Y-116919948D01*
X102008612Y-117129992D01*
X102645008Y-117766388D01*
X102855052Y-117906736D01*
X103102817Y-117956019D01*
X103218192Y-117933070D01*
X103522703Y-118237581D01*
X103475478Y-118475000D01*
X103524761Y-118722765D01*
X103560187Y-118775784D01*
X103508377Y-118765478D01*
X103276483Y-118811605D01*
X102808070Y-118343192D01*
X102831019Y-118227817D01*
X102781736Y-117980052D01*
X102641388Y-117770008D01*
X102004992Y-117133612D01*
X101794948Y-116993264D01*
X101547183Y-116943981D01*
X101299418Y-116993264D01*
X101089374Y-117133612D01*
X100523688Y-117699298D01*
X100383340Y-117909342D01*
X100334057Y-118157107D01*
X100383340Y-118404872D01*
X100523688Y-118614916D01*
X101160084Y-119251312D01*
X101370128Y-119391660D01*
X101617893Y-119440943D01*
X101733268Y-119417994D01*
X102113363Y-119798089D01*
X102023376Y-120250479D01*
X102136416Y-120818764D01*
X102458323Y-121300533D01*
X102499467Y-121341676D01*
X102643949Y-121438216D01*
X102643949Y-122801975D01*
X102526843Y-122977235D01*
X102477560Y-123225000D01*
X102477560Y-124225000D01*
X102493759Y-124306439D01*
X101787599Y-125012599D01*
X101622852Y-125259161D01*
X101565000Y-125550000D01*
X101565000Y-127475000D01*
X101622852Y-127765839D01*
X101787599Y-128012401D01*
X102377560Y-128602362D01*
X102377560Y-129875000D01*
X102426843Y-130122765D01*
X102507655Y-130243707D01*
X102451843Y-130327235D01*
X102402560Y-130575000D01*
X102402560Y-132158744D01*
X102248081Y-132312954D01*
X102104310Y-132659195D01*
X101933274Y-132625174D01*
X101685509Y-132674457D01*
X101475465Y-132814805D01*
X100414805Y-133875465D01*
X100274457Y-134085509D01*
X100225174Y-134333274D01*
X99770000Y-134333274D01*
X99770000Y-119449931D01*
X100115498Y-117712995D01*
X101059779Y-116299779D01*
X102472997Y-115355498D01*
X104209931Y-115010000D01*
X119310069Y-115010000D01*
X121047005Y-115355498D01*
X121047005Y-115355498D01*
G37*
X121047005Y-115355498D02*
X122460221Y-116299779D01*
X123404502Y-117712997D01*
X123750000Y-119449931D01*
X123750000Y-134550069D01*
X123404502Y-136287003D01*
X122460221Y-137700221D01*
X121047005Y-138644502D01*
X119310069Y-138990000D01*
X104209931Y-138990000D01*
X102472997Y-138644502D01*
X101059779Y-137700221D01*
X100115498Y-136287005D01*
X99770000Y-134550069D01*
X99770000Y-134333274D01*
X100225174Y-134333274D01*
X100274457Y-134581039D01*
X100414805Y-134791083D01*
X101475465Y-135851743D01*
X101685509Y-135992091D01*
X101933274Y-136041374D01*
X102181039Y-135992091D01*
X102391083Y-135851743D01*
X103024552Y-135218274D01*
X103381719Y-135218274D01*
X103381724Y-135218275D01*
X103431432Y-135208387D01*
X103381725Y-135458274D01*
X103381726Y-135458279D01*
X103381726Y-135575448D01*
X102748257Y-136208917D01*
X102607909Y-136418961D01*
X102558626Y-136666726D01*
X102607909Y-136914491D01*
X102748257Y-137124535D01*
X103808917Y-138185195D01*
X104018961Y-138325543D01*
X104266726Y-138374826D01*
X104514491Y-138325543D01*
X104724535Y-138185195D01*
X105785195Y-137124535D01*
X105925543Y-136914491D01*
X105974826Y-136666726D01*
X105925543Y-136418961D01*
X105785195Y-136208917D01*
X105276429Y-135700151D01*
X105604139Y-135372440D01*
X106200000Y-135372440D01*
X106352560Y-135342094D01*
X106352560Y-135675000D01*
X106401843Y-135922765D01*
X106480505Y-136040490D01*
X106365180Y-136318223D01*
X106364821Y-136729971D01*
X106522058Y-137110515D01*
X106812954Y-137401919D01*
X107193223Y-137559820D01*
X107604971Y-137560179D01*
X107985515Y-137402942D01*
X108276919Y-137112046D01*
X108434820Y-136731777D01*
X108435179Y-136320029D01*
X108433428Y-136315791D01*
X108647765Y-136273157D01*
X108857809Y-136132809D01*
X108998157Y-135922765D01*
X109029808Y-135763642D01*
X109139436Y-135873461D01*
X109648298Y-136084759D01*
X110199285Y-136085240D01*
X110708515Y-135874831D01*
X111098461Y-135485564D01*
X111309759Y-134976702D01*
X111310240Y-134425715D01*
X111099831Y-133916485D01*
X110710564Y-133526539D01*
X110201702Y-133315241D01*
X109650715Y-133314760D01*
X109141485Y-133525169D01*
X109035000Y-133631469D01*
X109035000Y-133560750D01*
X108876250Y-133402000D01*
X107827000Y-133402000D01*
X107827000Y-133422000D01*
X107573000Y-133422000D01*
X107573000Y-133402000D01*
X107553000Y-133402000D01*
X107553000Y-133148000D01*
X107573000Y-133148000D01*
X107573000Y-132298750D01*
X107827000Y-132298750D01*
X107827000Y-133148000D01*
X108876250Y-133148000D01*
X109035000Y-132989250D01*
X109035000Y-132648691D01*
X108938327Y-132415302D01*
X108759699Y-132236673D01*
X108526310Y-132140000D01*
X107985750Y-132140000D01*
X107827000Y-132298750D01*
X107573000Y-132298750D01*
X107497440Y-132223190D01*
X107497440Y-132055920D01*
X107637401Y-131962401D01*
X107873388Y-131726414D01*
X107990302Y-131843327D01*
X108223691Y-131940000D01*
X108839250Y-131940000D01*
X108998000Y-131781250D01*
X108998000Y-131132000D01*
X109252000Y-131132000D01*
X109252000Y-131781250D01*
X109410750Y-131940000D01*
X110026309Y-131940000D01*
X110259698Y-131843327D01*
X110438327Y-131664699D01*
X110535000Y-131431310D01*
X110535000Y-131290750D01*
X110376250Y-131132000D01*
X109252000Y-131132000D01*
X108998000Y-131132000D01*
X108978000Y-131132000D01*
X108978000Y-130878000D01*
X108998000Y-130878000D01*
X108998000Y-130858000D01*
X109252000Y-130858000D01*
X109252000Y-130878000D01*
X110376250Y-130878000D01*
X110535000Y-130719250D01*
X110535000Y-130578690D01*
X110445232Y-130361972D01*
X110498157Y-130282765D01*
X110547440Y-130035000D01*
X110547440Y-129494425D01*
X110647056Y-129735515D01*
X110937952Y-130026919D01*
X111115848Y-130100788D01*
X111015180Y-130343223D01*
X111014821Y-130754971D01*
X111172058Y-131135515D01*
X111462954Y-131426919D01*
X111843223Y-131584820D01*
X112031329Y-131584984D01*
X112214160Y-131707148D01*
X112505000Y-131765000D01*
X113295470Y-131765000D01*
X113502235Y-131903157D01*
X113750000Y-131952440D01*
X115300000Y-131952440D01*
X115547765Y-131903157D01*
X115754530Y-131765000D01*
X116177560Y-131765000D01*
X116177560Y-132078069D01*
X116175000Y-132077560D01*
X114775000Y-132077560D01*
X114527235Y-132126843D01*
X114317191Y-132267191D01*
X114176843Y-132477235D01*
X114127560Y-132725000D01*
X114127560Y-133543565D01*
X114110564Y-133526539D01*
X113601702Y-133315241D01*
X113050715Y-133314760D01*
X112541485Y-133525169D01*
X112151539Y-133914436D01*
X111940241Y-134423298D01*
X111939760Y-134974285D01*
X112150169Y-135483515D01*
X112539436Y-135873461D01*
X113048298Y-136084759D01*
X113599285Y-136085240D01*
X114108515Y-135874831D01*
X114166987Y-135816461D01*
X114236673Y-135984698D01*
X114415301Y-136163327D01*
X114648690Y-136260000D01*
X115189250Y-136260000D01*
X115348000Y-136101250D01*
X115348000Y-135252000D01*
X115328000Y-135252000D01*
X115328000Y-134998000D01*
X115348000Y-134998000D01*
X115348000Y-134978000D01*
X115602000Y-134978000D01*
X115602000Y-134998000D01*
X115622000Y-134998000D01*
X115622000Y-135252000D01*
X115602000Y-135252000D01*
X115602000Y-136101250D01*
X115760750Y-136260000D01*
X116301310Y-136260000D01*
X116534699Y-136163327D01*
X116713327Y-135984698D01*
X116810000Y-135751309D01*
X116810000Y-135410750D01*
X116651252Y-135252002D01*
X116695575Y-135252002D01*
X116727235Y-135273157D01*
X116975000Y-135322440D01*
X117570860Y-135322440D01*
X118073571Y-135825151D01*
X117564805Y-136333917D01*
X117424457Y-136543961D01*
X117375174Y-136791726D01*
X117424457Y-137039491D01*
X117564805Y-137249535D01*
X118625465Y-138310195D01*
X118835509Y-138450543D01*
X119083274Y-138499826D01*
X119331039Y-138450543D01*
X119541083Y-138310195D01*
X120601743Y-137249535D01*
X120742091Y-137039491D01*
X120791374Y-136791726D01*
X120742091Y-136543961D01*
X120601743Y-136333917D01*
X119968274Y-135700448D01*
X119968274Y-135583279D01*
X119968275Y-135583274D01*
X119905224Y-135266302D01*
X119915483Y-135273157D01*
X119919599Y-135275907D01*
X120258274Y-135343275D01*
X120258279Y-135343274D01*
X120325448Y-135343274D01*
X120958917Y-135976743D01*
X121168961Y-136117091D01*
X121416726Y-136166374D01*
X121664491Y-136117091D01*
X121874535Y-135976743D01*
X122935195Y-134916083D01*
X123075543Y-134706039D01*
X123124826Y-134458274D01*
X123075543Y-134210509D01*
X122935195Y-134000465D01*
X121904766Y-132970036D01*
X122687401Y-132187401D01*
X122852148Y-131940839D01*
X122910000Y-131650000D01*
X122910000Y-127925000D01*
X122878341Y-127765839D01*
X122852148Y-127634160D01*
X122687401Y-127387599D01*
X121412401Y-126112599D01*
X121272440Y-126019080D01*
X121272440Y-125800000D01*
X121223157Y-125552235D01*
X121171550Y-125475000D01*
X121223157Y-125397765D01*
X121272440Y-125150000D01*
X121272440Y-123450000D01*
X121223157Y-123202235D01*
X121082809Y-122992191D01*
X120872765Y-122851843D01*
X120625000Y-122802560D01*
X119725000Y-122802560D01*
X119477235Y-122851843D01*
X119267191Y-122992191D01*
X119126843Y-123202235D01*
X119077560Y-123450000D01*
X119077560Y-123521632D01*
X119063875Y-123530776D01*
X118849210Y-123674210D01*
X118849208Y-123674213D01*
X118372440Y-124150980D01*
X118372440Y-123450000D01*
X118355226Y-123363456D01*
X120055785Y-121662897D01*
X120250479Y-121701624D01*
X120818764Y-121588584D01*
X121300533Y-121266677D01*
X121341676Y-121225533D01*
X121663584Y-120743764D01*
X121776623Y-120175479D01*
X121663584Y-119607195D01*
X121341676Y-119125426D01*
X120859907Y-118803518D01*
X120291623Y-118690479D01*
X120239811Y-118700785D01*
X120312081Y-118526310D01*
X120312082Y-118273691D01*
X120215409Y-118040302D01*
X119727109Y-117552002D01*
X119502603Y-117552002D01*
X118654605Y-118400000D01*
X118668748Y-118414143D01*
X118489143Y-118593748D01*
X118475000Y-118579605D01*
X117627002Y-119427603D01*
X117627002Y-119652109D01*
X118115302Y-120140409D01*
X118348691Y-120237082D01*
X118601310Y-120237081D01*
X118775784Y-120164811D01*
X118765478Y-120216623D01*
X118804205Y-120411317D01*
X116649210Y-122566312D01*
X116457367Y-122853427D01*
X116457367Y-122853428D01*
X116439356Y-122943971D01*
X116367191Y-122992191D01*
X116226843Y-123202235D01*
X116177560Y-123450000D01*
X116177560Y-123896979D01*
X115997765Y-123776843D01*
X115750000Y-123727560D01*
X113950000Y-123727560D01*
X113702235Y-123776843D01*
X113492191Y-123917191D01*
X113410132Y-124040000D01*
X112716579Y-124040000D01*
X112077131Y-123400551D01*
X111927942Y-123039485D01*
X111637046Y-122748081D01*
X111256777Y-122590180D01*
X110998874Y-122589955D01*
X111076919Y-122512046D01*
X111234820Y-122131777D01*
X111234948Y-121985000D01*
X113344331Y-121985000D01*
X113351843Y-122022765D01*
X113492191Y-122232809D01*
X113702235Y-122373157D01*
X113950000Y-122422440D01*
X115750000Y-122422440D01*
X115997765Y-122373157D01*
X116207809Y-122232809D01*
X116348157Y-122022765D01*
X116397440Y-121775000D01*
X116397440Y-120675000D01*
X116348157Y-120427235D01*
X116207809Y-120217191D01*
X115997765Y-120076843D01*
X115750000Y-120027560D01*
X113950000Y-120027560D01*
X113702235Y-120076843D01*
X113492191Y-120217191D01*
X113351843Y-120427235D01*
X113344331Y-120465000D01*
X112034965Y-120465000D01*
X112035179Y-120220029D01*
X111935883Y-119979714D01*
X112025000Y-119997440D01*
X113025000Y-119997440D01*
X113272765Y-119948157D01*
X113482809Y-119807809D01*
X113623157Y-119597765D01*
X113672440Y-119350000D01*
X113672440Y-118835750D01*
X114390000Y-118835750D01*
X114390000Y-119476310D01*
X114486673Y-119709699D01*
X114665302Y-119888327D01*
X114898691Y-119985000D01*
X115239250Y-119985000D01*
X115398000Y-119826250D01*
X115398000Y-118677000D01*
X114548750Y-118677000D01*
X114390000Y-118835750D01*
X113672440Y-118835750D01*
X113672440Y-117750000D01*
X113647316Y-117623690D01*
X114390000Y-117623690D01*
X114390000Y-118264250D01*
X114548750Y-118423000D01*
X115398000Y-118423000D01*
X115398000Y-117273750D01*
X115652000Y-117273750D01*
X115652000Y-118423000D01*
X115672000Y-118423000D01*
X115672000Y-118677000D01*
X115652000Y-118677000D01*
X115652000Y-119826250D01*
X115810750Y-119985000D01*
X116151309Y-119985000D01*
X116384698Y-119888327D01*
X116563327Y-119709699D01*
X116660000Y-119476310D01*
X116660000Y-118835750D01*
X116501252Y-118677002D01*
X116660000Y-118677002D01*
X116660000Y-118579620D01*
X116734591Y-118759698D01*
X117222891Y-119247998D01*
X117447397Y-119247998D01*
X118295395Y-118400000D01*
X117447397Y-117552002D01*
X117222891Y-117552002D01*
X116734592Y-118040301D01*
X116660000Y-118220382D01*
X116660000Y-117623690D01*
X116563327Y-117390301D01*
X116384698Y-117211673D01*
X116230715Y-117147891D01*
X117627002Y-117147891D01*
X117627002Y-117372397D01*
X118475000Y-118220395D01*
X119322998Y-117372397D01*
X119322998Y-117147891D01*
X118834698Y-116659591D01*
X118601309Y-116562918D01*
X118348690Y-116562919D01*
X118115301Y-116659592D01*
X117627002Y-117147891D01*
X116230715Y-117147891D01*
X116151309Y-117115000D01*
X115810750Y-117115000D01*
X115652000Y-117273750D01*
X115398000Y-117273750D01*
X115239250Y-117115000D01*
X114898691Y-117115000D01*
X114665302Y-117211673D01*
X114486673Y-117390301D01*
X114390000Y-117623690D01*
X113647316Y-117623690D01*
X113623157Y-117502235D01*
X113482809Y-117292191D01*
X113272765Y-117151843D01*
X113025000Y-117102560D01*
X112025000Y-117102560D01*
X111777235Y-117151843D01*
X111712415Y-117195155D01*
X111572765Y-117101843D01*
X111325000Y-117052560D01*
X110425000Y-117052560D01*
X110177235Y-117101843D01*
X109967191Y-117242191D01*
X109826843Y-117452235D01*
X109777560Y-117700000D01*
X109777560Y-119400000D01*
X109826843Y-119647765D01*
X109967191Y-119857809D01*
X109990000Y-119873050D01*
X109990000Y-120158450D01*
X109974774Y-120195118D01*
X109797765Y-120076843D01*
X109550000Y-120027560D01*
X108524945Y-120027560D01*
X108672765Y-119998157D01*
X108882809Y-119857809D01*
X109023157Y-119647765D01*
X109072440Y-119400000D01*
X109072440Y-117700000D01*
X109023157Y-117452235D01*
X108882809Y-117242191D01*
X108672765Y-117101843D01*
X108425000Y-117052560D01*
X107525000Y-117052560D01*
X107277235Y-117101843D01*
X107067191Y-117242191D01*
X106926843Y-117452235D01*
X106884522Y-117665000D01*
X106632700Y-117665000D01*
X105782809Y-116815109D01*
X105572765Y-116674761D01*
X105325000Y-116625478D01*
X105077235Y-116674761D01*
X104867191Y-116815109D01*
X104558513Y-117123787D01*
X104292994Y-116858268D01*
X104315943Y-116742893D01*
X104266660Y-116495128D01*
X104126312Y-116285084D01*
X103489916Y-115648688D01*
X103279872Y-115508340D01*
X103032107Y-115459057D01*
X102784342Y-115508340D01*
X102574298Y-115648688D01*
X102008612Y-116214374D01*
X101868264Y-116424418D01*
X101818981Y-116672183D01*
X101868264Y-116919948D01*
X102008612Y-117129992D01*
X102645008Y-117766388D01*
X102855052Y-117906736D01*
X103102817Y-117956019D01*
X103218192Y-117933070D01*
X103522703Y-118237581D01*
X103475478Y-118475000D01*
X103524761Y-118722765D01*
X103560187Y-118775784D01*
X103508377Y-118765478D01*
X103276483Y-118811605D01*
X102808070Y-118343192D01*
X102831019Y-118227817D01*
X102781736Y-117980052D01*
X102641388Y-117770008D01*
X102004992Y-117133612D01*
X101794948Y-116993264D01*
X101547183Y-116943981D01*
X101299418Y-116993264D01*
X101089374Y-117133612D01*
X100523688Y-117699298D01*
X100383340Y-117909342D01*
X100334057Y-118157107D01*
X100383340Y-118404872D01*
X100523688Y-118614916D01*
X101160084Y-119251312D01*
X101370128Y-119391660D01*
X101617893Y-119440943D01*
X101733268Y-119417994D01*
X102113363Y-119798089D01*
X102023376Y-120250479D01*
X102136416Y-120818764D01*
X102458323Y-121300533D01*
X102499467Y-121341676D01*
X102643949Y-121438216D01*
X102643949Y-122801975D01*
X102526843Y-122977235D01*
X102477560Y-123225000D01*
X102477560Y-124225000D01*
X102493759Y-124306439D01*
X101787599Y-125012599D01*
X101622852Y-125259161D01*
X101565000Y-125550000D01*
X101565000Y-127475000D01*
X101622852Y-127765839D01*
X101787599Y-128012401D01*
X102377560Y-128602362D01*
X102377560Y-129875000D01*
X102426843Y-130122765D01*
X102507655Y-130243707D01*
X102451843Y-130327235D01*
X102402560Y-130575000D01*
X102402560Y-132158744D01*
X102248081Y-132312954D01*
X102104310Y-132659195D01*
X101933274Y-132625174D01*
X101685509Y-132674457D01*
X101475465Y-132814805D01*
X100414805Y-133875465D01*
X100274457Y-134085509D01*
X100225174Y-134333274D01*
X99770000Y-134333274D01*
X99770000Y-119449931D01*
X100115498Y-117712995D01*
X101059779Y-116299779D01*
X102472997Y-115355498D01*
X104209931Y-115010000D01*
X119310069Y-115010000D01*
X121047005Y-115355498D01*
G36*
X121390000Y-128239802D02*
X121390000Y-131335198D01*
X121174724Y-131550474D01*
X121101250Y-131477000D01*
X120302000Y-131477000D01*
X120302000Y-131497000D01*
X120048000Y-131497000D01*
X120048000Y-131477000D01*
X119248750Y-131477000D01*
X119090000Y-131635750D01*
X119090000Y-131889999D01*
X118372440Y-131889999D01*
X118372440Y-130500000D01*
X118323157Y-130252235D01*
X118288254Y-130200000D01*
X118323157Y-130147765D01*
X118372440Y-129900000D01*
X118372440Y-129809667D01*
X118493223Y-129859820D01*
X118904971Y-129860179D01*
X119090000Y-129783727D01*
X119090000Y-130026310D01*
X119161945Y-130200000D01*
X119090000Y-130373690D01*
X119090000Y-131064250D01*
X119248750Y-131223000D01*
X120048000Y-131223000D01*
X120048000Y-129177000D01*
X120302000Y-129177000D01*
X120302000Y-131223000D01*
X121101250Y-131223000D01*
X121260000Y-131064250D01*
X121260000Y-130373690D01*
X121188055Y-130200000D01*
X121260000Y-130026310D01*
X121260000Y-129335750D01*
X121101250Y-129177000D01*
X120302000Y-129177000D01*
X120048000Y-129177000D01*
X120028000Y-129177000D01*
X120028000Y-128923000D01*
X120048000Y-128923000D01*
X120048000Y-128903000D01*
X120302000Y-128903000D01*
X120302000Y-128923000D01*
X121101250Y-128923000D01*
X121260000Y-128764250D01*
X121260000Y-128109802D01*
X121390000Y-128239802D01*
X121390000Y-128239802D01*
G37*
X121390000Y-128239802D02*
X121390000Y-131335198D01*
X121174724Y-131550474D01*
X121101250Y-131477000D01*
X120302000Y-131477000D01*
X120302000Y-131497000D01*
X120048000Y-131497000D01*
X120048000Y-131477000D01*
X119248750Y-131477000D01*
X119090000Y-131635750D01*
X119090000Y-131889999D01*
X118372440Y-131889999D01*
X118372440Y-130500000D01*
X118323157Y-130252235D01*
X118288254Y-130200000D01*
X118323157Y-130147765D01*
X118372440Y-129900000D01*
X118372440Y-129809667D01*
X118493223Y-129859820D01*
X118904971Y-129860179D01*
X119090000Y-129783727D01*
X119090000Y-130026310D01*
X119161945Y-130200000D01*
X119090000Y-130373690D01*
X119090000Y-131064250D01*
X119248750Y-131223000D01*
X120048000Y-131223000D01*
X120048000Y-129177000D01*
X120302000Y-129177000D01*
X120302000Y-131223000D01*
X121101250Y-131223000D01*
X121260000Y-131064250D01*
X121260000Y-130373690D01*
X121188055Y-130200000D01*
X121260000Y-130026310D01*
X121260000Y-129335750D01*
X121101250Y-129177000D01*
X120302000Y-129177000D01*
X120048000Y-129177000D01*
X120028000Y-129177000D01*
X120028000Y-128923000D01*
X120048000Y-128923000D01*
X120048000Y-128903000D01*
X120302000Y-128903000D01*
X120302000Y-128923000D01*
X121101250Y-128923000D01*
X121260000Y-128764250D01*
X121260000Y-128109802D01*
X121390000Y-128239802D01*
G36*
X106926843Y-119647765D02*
X107067191Y-119857809D01*
X107277235Y-119998157D01*
X107525000Y-120047440D01*
X107650055Y-120047440D01*
X107502235Y-120076843D01*
X107292191Y-120217191D01*
X107151843Y-120427235D01*
X107102560Y-120675000D01*
X107102560Y-121754534D01*
X107084699Y-121736673D01*
X106851310Y-121640000D01*
X106310750Y-121640000D01*
X106152000Y-121798750D01*
X106152000Y-122648000D01*
X107201250Y-122648000D01*
X107360000Y-122489250D01*
X107360000Y-122278118D01*
X107502235Y-122373157D01*
X107750000Y-122422440D01*
X108772637Y-122422440D01*
X108812598Y-122462401D01*
X108886898Y-122512046D01*
X109059161Y-122627148D01*
X109350000Y-122685000D01*
X109496239Y-122685000D01*
X109612954Y-122801919D01*
X109621297Y-122805383D01*
X109611325Y-122807367D01*
X109324210Y-122999210D01*
X109324208Y-122999213D01*
X108595860Y-123727560D01*
X107750000Y-123727560D01*
X107502235Y-123776843D01*
X107308959Y-123905987D01*
X107182809Y-123717191D01*
X107181625Y-123716400D01*
X107263327Y-123634698D01*
X107360000Y-123401309D01*
X107360000Y-123060750D01*
X107201250Y-122902000D01*
X106152000Y-122902000D01*
X106152000Y-122922000D01*
X105898000Y-122922000D01*
X105898000Y-122902000D01*
X105878000Y-122902000D01*
X105878000Y-122648000D01*
X105898000Y-122648000D01*
X105898000Y-121798750D01*
X105739250Y-121640000D01*
X105198690Y-121640000D01*
X104965301Y-121736673D01*
X104786673Y-121915302D01*
X104690000Y-122148691D01*
X104690000Y-122489250D01*
X104848748Y-122647998D01*
X104804425Y-122647998D01*
X104772765Y-122626843D01*
X104525000Y-122577560D01*
X104413949Y-122577560D01*
X104413949Y-121465707D01*
X104599574Y-121341676D01*
X104921482Y-120859907D01*
X105034521Y-120291623D01*
X105024215Y-120239812D01*
X105077235Y-120275239D01*
X105325000Y-120324522D01*
X105572765Y-120275239D01*
X105782809Y-120134891D01*
X106482700Y-119435000D01*
X106884522Y-119435000D01*
X106926843Y-119647765D01*
X106926843Y-119647765D01*
G37*
X106926843Y-119647765D02*
X107067191Y-119857809D01*
X107277235Y-119998157D01*
X107525000Y-120047440D01*
X107650055Y-120047440D01*
X107502235Y-120076843D01*
X107292191Y-120217191D01*
X107151843Y-120427235D01*
X107102560Y-120675000D01*
X107102560Y-121754534D01*
X107084699Y-121736673D01*
X106851310Y-121640000D01*
X106310750Y-121640000D01*
X106152000Y-121798750D01*
X106152000Y-122648000D01*
X107201250Y-122648000D01*
X107360000Y-122489250D01*
X107360000Y-122278118D01*
X107502235Y-122373157D01*
X107750000Y-122422440D01*
X108772637Y-122422440D01*
X108812598Y-122462401D01*
X108886898Y-122512046D01*
X109059161Y-122627148D01*
X109350000Y-122685000D01*
X109496239Y-122685000D01*
X109612954Y-122801919D01*
X109621297Y-122805383D01*
X109611325Y-122807367D01*
X109324210Y-122999210D01*
X109324208Y-122999213D01*
X108595860Y-123727560D01*
X107750000Y-123727560D01*
X107502235Y-123776843D01*
X107308959Y-123905987D01*
X107182809Y-123717191D01*
X107181625Y-123716400D01*
X107263327Y-123634698D01*
X107360000Y-123401309D01*
X107360000Y-123060750D01*
X107201250Y-122902000D01*
X106152000Y-122902000D01*
X106152000Y-122922000D01*
X105898000Y-122922000D01*
X105898000Y-122902000D01*
X105878000Y-122902000D01*
X105878000Y-122648000D01*
X105898000Y-122648000D01*
X105898000Y-121798750D01*
X105739250Y-121640000D01*
X105198690Y-121640000D01*
X104965301Y-121736673D01*
X104786673Y-121915302D01*
X104690000Y-122148691D01*
X104690000Y-122489250D01*
X104848748Y-122647998D01*
X104804425Y-122647998D01*
X104772765Y-122626843D01*
X104525000Y-122577560D01*
X104413949Y-122577560D01*
X104413949Y-121465707D01*
X104599574Y-121341676D01*
X104921482Y-120859907D01*
X105034521Y-120291623D01*
X105024215Y-120239812D01*
X105077235Y-120275239D01*
X105325000Y-120324522D01*
X105572765Y-120275239D01*
X105782809Y-120134891D01*
X106482700Y-119435000D01*
X106884522Y-119435000D01*
X106926843Y-119647765D01*
M02*
