G04 #@! TF.GenerationSoftware,KiCad,Pcbnew,(2017-06-21 revision 375ec9f)-master*
G04 #@! TF.CreationDate,2017-08-16T22:12:41-04:00*
G04 #@! TF.ProjectId,light_reactive_nodes,6C696768745F72656163746976655F6E,rev?*
G04 #@! TF.SameCoordinates,Original
G04 #@! TF.FileFunction,Copper,L2,Bot,Signal*
G04 #@! TF.FilePolarity,Positive*
%FSLAX46Y46*%
G04 Gerber Fmt 4.6, Leading zero omitted, Abs format (unit mm)*
G04 Created by KiCad (PCBNEW (2017-06-21 revision 375ec9f)-master) date Wed Aug 16 22:12:41 2017*
%MOMM*%
%LPD*%
G01*
G04 APERTURE LIST*
%ADD10C,0.100000*%
%ADD11R,3.000000X1.000000*%
%ADD12C,1.700000*%
%ADD13C,1.700000*%
%ADD14C,1.500000*%
%ADD15C,0.800000*%
%ADD16C,0.500000*%
%ADD17C,0.250000*%
%ADD18C,0.254000*%
G04 APERTURE END LIST*
D10*
D11*
X114645000Y-125260000D03*
X109105000Y-125260000D03*
X114645000Y-127800000D03*
X109105000Y-127800000D03*
X114645000Y-130340000D03*
X109105000Y-130340000D03*
D12*
X105325000Y-118475000D03*
D10*
G36*
X104122918Y-118475000D02*
X105325000Y-117272918D01*
X106527082Y-118475000D01*
X105325000Y-119677082D01*
X104122918Y-118475000D01*
X104122918Y-118475000D01*
G37*
D12*
X103528949Y-120271051D03*
D13*
X103528949Y-120271051D02*
X103528949Y-120271051D01*
D14*
X109925000Y-134700000D03*
X113325000Y-134700000D03*
D12*
X118475000Y-118400000D03*
D10*
G36*
X118475000Y-119602082D02*
X117272918Y-118400000D01*
X118475000Y-117197918D01*
X119677082Y-118400000D01*
X118475000Y-119602082D01*
X118475000Y-119602082D01*
G37*
D12*
X120271051Y-120196051D03*
D13*
X120271051Y-120196051D02*
X120271051Y-120196051D01*
D15*
X121424990Y-129125000D03*
X113375000Y-122825000D03*
X117400000Y-135675000D03*
X118325000Y-120675000D03*
X111000000Y-120425000D03*
X116000000Y-126360002D03*
X111050000Y-123625000D03*
X111200000Y-126500000D03*
X112050000Y-130550000D03*
X111325000Y-127800002D03*
X111524998Y-129150000D03*
X110200000Y-121925000D03*
X118700000Y-128825000D03*
X119075000Y-133375000D03*
X107400000Y-136525000D03*
X103125000Y-132900000D03*
D16*
X117400000Y-135675000D02*
X118775000Y-135675000D01*
X121424990Y-133025010D02*
X121424990Y-129690685D01*
X118775000Y-135675000D02*
X121424990Y-133025010D01*
X121424990Y-129690685D02*
X121424990Y-129125000D01*
X121024991Y-128725001D02*
X121424990Y-129125000D01*
X117559990Y-125260000D02*
X121024991Y-128725001D01*
X114645000Y-125260000D02*
X117559990Y-125260000D01*
X114645000Y-124095000D02*
X114645000Y-124260000D01*
X113375000Y-122825000D02*
X114645000Y-124095000D01*
X114645000Y-125260000D02*
X114645000Y-124260000D01*
X114645000Y-124260000D02*
X118230000Y-120675000D01*
X118230000Y-120675000D02*
X118325000Y-120675000D01*
X111050000Y-123625000D02*
X111050000Y-120475000D01*
X111050000Y-120475000D02*
X111000000Y-120425000D01*
X116000000Y-126360002D02*
X116460002Y-126360002D01*
X116460002Y-126360002D02*
X116975000Y-126875000D01*
X116975000Y-126875000D02*
X116975000Y-129775000D01*
X116975000Y-129775000D02*
X116410000Y-130340000D01*
X116410000Y-130340000D02*
X114645000Y-130340000D01*
D17*
X114645000Y-130340000D02*
X114645000Y-133380000D01*
X114645000Y-133380000D02*
X113325000Y-134700000D01*
X111200000Y-126500000D02*
X111200000Y-125605000D01*
X111200000Y-125605000D02*
X110855000Y-125260000D01*
X110855000Y-125260000D02*
X109105000Y-125260000D01*
X109925000Y-134700000D02*
X112050000Y-132575000D01*
X112050000Y-132575000D02*
X112050000Y-130550000D01*
X112050000Y-130550000D02*
X112449999Y-130150001D01*
X112449999Y-130150001D02*
X112449999Y-128995001D01*
X112449999Y-128995001D02*
X113645000Y-127800000D01*
X113645000Y-127800000D02*
X114645000Y-127800000D01*
X111324998Y-127800000D02*
X111325000Y-127800002D01*
X109105000Y-127800000D02*
X111324998Y-127800000D01*
X110200000Y-121925000D02*
X110200000Y-123848002D01*
X110200000Y-123848002D02*
X112075001Y-125723003D01*
X112075001Y-125723003D02*
X112075001Y-128599997D01*
X112075001Y-128599997D02*
X111924997Y-128750001D01*
X111924997Y-128750001D02*
X111524998Y-129150000D01*
X110105000Y-130340000D02*
X111295000Y-129150000D01*
X109105000Y-130340000D02*
X110105000Y-130340000D01*
X111295000Y-129150000D02*
X111524998Y-129150000D01*
D16*
X119150000Y-133350000D02*
X118700000Y-132900000D01*
X118700000Y-132900000D02*
X118700000Y-128825000D01*
D17*
X103125000Y-132900000D02*
X106750000Y-136525000D01*
X106750000Y-136525000D02*
X107400000Y-136525000D01*
D18*
G36*
X121047005Y-115355498D02*
X122460221Y-116299779D01*
X123404502Y-117712997D01*
X123750000Y-119449931D01*
X123750000Y-134550069D01*
X123404502Y-136287003D01*
X122460221Y-137700221D01*
X121047005Y-138644502D01*
X119310069Y-138990000D01*
X104209931Y-138990000D01*
X102472997Y-138644502D01*
X101059779Y-137700221D01*
X100115498Y-136287005D01*
X99770000Y-134550069D01*
X99770000Y-133104971D01*
X102089821Y-133104971D01*
X102247058Y-133485515D01*
X102537954Y-133776919D01*
X102918223Y-133934820D01*
X103085164Y-133934966D01*
X106212599Y-137062401D01*
X106459161Y-137227148D01*
X106682919Y-137271657D01*
X106812954Y-137401919D01*
X107193223Y-137559820D01*
X107604971Y-137560179D01*
X107985515Y-137402942D01*
X108276919Y-137112046D01*
X108434820Y-136731777D01*
X108435179Y-136320029D01*
X108277942Y-135939485D01*
X107987046Y-135648081D01*
X107606777Y-135490180D01*
X107195029Y-135489821D01*
X106908156Y-135608354D01*
X104160035Y-132860233D01*
X104160179Y-132695029D01*
X104002942Y-132314485D01*
X103712046Y-132023081D01*
X103331777Y-131865180D01*
X102920029Y-131864821D01*
X102539485Y-132022058D01*
X102248081Y-132312954D01*
X102090180Y-132693223D01*
X102089821Y-133104971D01*
X99770000Y-133104971D01*
X99770000Y-124760000D01*
X106957560Y-124760000D01*
X106957560Y-125760000D01*
X107006843Y-126007765D01*
X107147191Y-126217809D01*
X107357235Y-126358157D01*
X107605000Y-126407440D01*
X110165080Y-126407440D01*
X110164867Y-126652560D01*
X107605000Y-126652560D01*
X107357235Y-126701843D01*
X107147191Y-126842191D01*
X107006843Y-127052235D01*
X106957560Y-127300000D01*
X106957560Y-128300000D01*
X107006843Y-128547765D01*
X107147191Y-128757809D01*
X107357235Y-128898157D01*
X107605000Y-128947440D01*
X110422758Y-128947440D01*
X110177638Y-129192560D01*
X107605000Y-129192560D01*
X107357235Y-129241843D01*
X107147191Y-129382191D01*
X107006843Y-129592235D01*
X106957560Y-129840000D01*
X106957560Y-130840000D01*
X107006843Y-131087765D01*
X107147191Y-131297809D01*
X107357235Y-131438157D01*
X107605000Y-131487440D01*
X110605000Y-131487440D01*
X110852765Y-131438157D01*
X111062809Y-131297809D01*
X111171750Y-131134769D01*
X111172058Y-131135515D01*
X111290000Y-131253663D01*
X111290000Y-132260198D01*
X110225200Y-133324998D01*
X110201702Y-133315241D01*
X109650715Y-133314760D01*
X109141485Y-133525169D01*
X108751539Y-133914436D01*
X108540241Y-134423298D01*
X108539760Y-134974285D01*
X108750169Y-135483515D01*
X109139436Y-135873461D01*
X109648298Y-136084759D01*
X110199285Y-136085240D01*
X110708515Y-135874831D01*
X111098461Y-135485564D01*
X111309759Y-134976702D01*
X111310240Y-134425715D01*
X111299670Y-134400132D01*
X112587401Y-133112401D01*
X112752148Y-132865839D01*
X112810000Y-132575000D01*
X112810000Y-131379868D01*
X112897235Y-131438157D01*
X113145000Y-131487440D01*
X113885000Y-131487440D01*
X113885000Y-133065198D01*
X113625200Y-133324998D01*
X113601702Y-133315241D01*
X113050715Y-133314760D01*
X112541485Y-133525169D01*
X112151539Y-133914436D01*
X111940241Y-134423298D01*
X111939760Y-134974285D01*
X112150169Y-135483515D01*
X112539436Y-135873461D01*
X113048298Y-136084759D01*
X113599285Y-136085240D01*
X114108515Y-135874831D01*
X114498461Y-135485564D01*
X114709759Y-134976702D01*
X114710240Y-134425715D01*
X114699670Y-134400132D01*
X115182401Y-133917401D01*
X115347148Y-133670839D01*
X115405000Y-133380000D01*
X115405000Y-131487440D01*
X116145000Y-131487440D01*
X116392765Y-131438157D01*
X116602809Y-131297809D01*
X116688471Y-131169608D01*
X116692484Y-131168810D01*
X116748675Y-131157633D01*
X117035790Y-130965790D01*
X117600787Y-130400792D01*
X117600790Y-130400790D01*
X117792633Y-130113675D01*
X117805466Y-130049161D01*
X117815000Y-130001230D01*
X117815000Y-132899995D01*
X117814999Y-132900000D01*
X117857249Y-133112401D01*
X117882367Y-133238675D01*
X117946729Y-133335000D01*
X118039913Y-133474460D01*
X118039821Y-133579971D01*
X118197058Y-133960515D01*
X118487954Y-134251919D01*
X118868223Y-134409820D01*
X119279971Y-134410179D01*
X119660515Y-134252942D01*
X119951919Y-133962046D01*
X120109820Y-133581777D01*
X120110179Y-133170029D01*
X119952942Y-132789485D01*
X119662046Y-132498081D01*
X119585000Y-132466089D01*
X119585000Y-129392585D01*
X119734820Y-129031777D01*
X119735179Y-128620029D01*
X119577942Y-128239485D01*
X119287046Y-127948081D01*
X118906777Y-127790180D01*
X118495029Y-127789821D01*
X118114485Y-127947058D01*
X117860000Y-128201099D01*
X117860000Y-126875005D01*
X117860001Y-126875000D01*
X117792633Y-126536325D01*
X117600790Y-126249210D01*
X117600787Y-126249208D01*
X117085792Y-125734212D01*
X117069016Y-125723003D01*
X116798677Y-125542369D01*
X116771142Y-125536892D01*
X116621250Y-125387000D01*
X116355652Y-125387000D01*
X116206777Y-125325182D01*
X115795029Y-125324823D01*
X115644549Y-125387000D01*
X114772000Y-125387000D01*
X114772000Y-126236250D01*
X114930750Y-126395000D01*
X114964969Y-126395000D01*
X114964821Y-126564973D01*
X115001011Y-126652560D01*
X113145000Y-126652560D01*
X112897235Y-126701843D01*
X112835001Y-126743427D01*
X112835001Y-126318913D01*
X113018691Y-126395000D01*
X114359250Y-126395000D01*
X114518000Y-126236250D01*
X114518000Y-125387000D01*
X114498000Y-125387000D01*
X114498000Y-125133000D01*
X114518000Y-125133000D01*
X114518000Y-124283750D01*
X114772000Y-124283750D01*
X114772000Y-125133000D01*
X116621250Y-125133000D01*
X116780000Y-124974250D01*
X116780000Y-124633690D01*
X116683327Y-124400301D01*
X116504698Y-124221673D01*
X116271309Y-124125000D01*
X114930750Y-124125000D01*
X114772000Y-124283750D01*
X114518000Y-124283750D01*
X114359250Y-124125000D01*
X113018691Y-124125000D01*
X112785302Y-124221673D01*
X112606673Y-124400301D01*
X112510000Y-124633690D01*
X112510000Y-124974250D01*
X112668748Y-125132998D01*
X112559798Y-125132998D01*
X111782757Y-124355957D01*
X111926919Y-124212046D01*
X112084820Y-123831777D01*
X112085179Y-123420029D01*
X111935000Y-123056567D01*
X111935000Y-120872171D01*
X112034820Y-120631777D01*
X112035179Y-120220029D01*
X111877942Y-119839485D01*
X111587046Y-119548081D01*
X111296902Y-119427603D01*
X117627002Y-119427603D01*
X117627002Y-119652109D01*
X118115302Y-120140409D01*
X118348691Y-120237082D01*
X118601310Y-120237081D01*
X118775784Y-120164811D01*
X118765478Y-120216623D01*
X118878518Y-120784908D01*
X119200425Y-121266677D01*
X119682194Y-121588584D01*
X120250479Y-121701624D01*
X120818764Y-121588584D01*
X121300533Y-121266677D01*
X121341676Y-121225533D01*
X121663584Y-120743764D01*
X121776623Y-120175479D01*
X121663584Y-119607195D01*
X121341676Y-119125426D01*
X120859907Y-118803518D01*
X120291623Y-118690479D01*
X120239811Y-118700785D01*
X120312081Y-118526310D01*
X120312082Y-118273691D01*
X120215409Y-118040302D01*
X119727109Y-117552002D01*
X119502603Y-117552002D01*
X118654605Y-118400000D01*
X118668748Y-118414143D01*
X118489143Y-118593748D01*
X118475000Y-118579605D01*
X117627002Y-119427603D01*
X111296902Y-119427603D01*
X111206777Y-119390180D01*
X110795029Y-119389821D01*
X110414485Y-119547058D01*
X110123081Y-119837954D01*
X109965180Y-120218223D01*
X109964821Y-120629971D01*
X110072216Y-120889888D01*
X109995029Y-120889821D01*
X109614485Y-121047058D01*
X109323081Y-121337954D01*
X109165180Y-121718223D01*
X109164821Y-122129971D01*
X109322058Y-122510515D01*
X109440000Y-122628663D01*
X109440000Y-123848002D01*
X109492624Y-124112560D01*
X107605000Y-124112560D01*
X107357235Y-124161843D01*
X107147191Y-124302191D01*
X107006843Y-124512235D01*
X106957560Y-124760000D01*
X99770000Y-124760000D01*
X99770000Y-120250479D01*
X102023376Y-120250479D01*
X102136416Y-120818764D01*
X102458323Y-121300533D01*
X102499467Y-121341676D01*
X102981236Y-121663584D01*
X103549521Y-121776623D01*
X104117805Y-121663584D01*
X104599574Y-121341676D01*
X104921482Y-120859907D01*
X105034521Y-120291623D01*
X105024215Y-120239812D01*
X105077235Y-120275239D01*
X105325000Y-120324522D01*
X105572765Y-120275239D01*
X105782809Y-120134891D01*
X106984891Y-118932809D01*
X107125239Y-118722765D01*
X107164316Y-118526309D01*
X116637918Y-118526309D01*
X116734591Y-118759698D01*
X117222891Y-119247998D01*
X117447397Y-119247998D01*
X118295395Y-118400000D01*
X117447397Y-117552002D01*
X117222891Y-117552002D01*
X116734592Y-118040301D01*
X116637919Y-118273690D01*
X116637918Y-118526309D01*
X107164316Y-118526309D01*
X107174522Y-118475000D01*
X107125239Y-118227235D01*
X106984891Y-118017191D01*
X106115591Y-117147891D01*
X117627002Y-117147891D01*
X117627002Y-117372397D01*
X118475000Y-118220395D01*
X119322998Y-117372397D01*
X119322998Y-117147891D01*
X118834698Y-116659591D01*
X118601309Y-116562918D01*
X118348690Y-116562919D01*
X118115301Y-116659592D01*
X117627002Y-117147891D01*
X106115591Y-117147891D01*
X105782809Y-116815109D01*
X105572765Y-116674761D01*
X105325000Y-116625478D01*
X105077235Y-116674761D01*
X104867191Y-116815109D01*
X103665109Y-118017191D01*
X103524761Y-118227235D01*
X103475478Y-118475000D01*
X103524761Y-118722765D01*
X103560187Y-118775784D01*
X103508377Y-118765478D01*
X102940092Y-118878518D01*
X102458323Y-119200425D01*
X102136416Y-119682194D01*
X102023376Y-120250479D01*
X99770000Y-120250479D01*
X99770000Y-119449931D01*
X100115498Y-117712995D01*
X101059779Y-116299779D01*
X102472997Y-115355498D01*
X104209931Y-115010000D01*
X119310069Y-115010000D01*
X121047005Y-115355498D01*
X121047005Y-115355498D01*
G37*
X121047005Y-115355498D02*
X122460221Y-116299779D01*
X123404502Y-117712997D01*
X123750000Y-119449931D01*
X123750000Y-134550069D01*
X123404502Y-136287003D01*
X122460221Y-137700221D01*
X121047005Y-138644502D01*
X119310069Y-138990000D01*
X104209931Y-138990000D01*
X102472997Y-138644502D01*
X101059779Y-137700221D01*
X100115498Y-136287005D01*
X99770000Y-134550069D01*
X99770000Y-133104971D01*
X102089821Y-133104971D01*
X102247058Y-133485515D01*
X102537954Y-133776919D01*
X102918223Y-133934820D01*
X103085164Y-133934966D01*
X106212599Y-137062401D01*
X106459161Y-137227148D01*
X106682919Y-137271657D01*
X106812954Y-137401919D01*
X107193223Y-137559820D01*
X107604971Y-137560179D01*
X107985515Y-137402942D01*
X108276919Y-137112046D01*
X108434820Y-136731777D01*
X108435179Y-136320029D01*
X108277942Y-135939485D01*
X107987046Y-135648081D01*
X107606777Y-135490180D01*
X107195029Y-135489821D01*
X106908156Y-135608354D01*
X104160035Y-132860233D01*
X104160179Y-132695029D01*
X104002942Y-132314485D01*
X103712046Y-132023081D01*
X103331777Y-131865180D01*
X102920029Y-131864821D01*
X102539485Y-132022058D01*
X102248081Y-132312954D01*
X102090180Y-132693223D01*
X102089821Y-133104971D01*
X99770000Y-133104971D01*
X99770000Y-124760000D01*
X106957560Y-124760000D01*
X106957560Y-125760000D01*
X107006843Y-126007765D01*
X107147191Y-126217809D01*
X107357235Y-126358157D01*
X107605000Y-126407440D01*
X110165080Y-126407440D01*
X110164867Y-126652560D01*
X107605000Y-126652560D01*
X107357235Y-126701843D01*
X107147191Y-126842191D01*
X107006843Y-127052235D01*
X106957560Y-127300000D01*
X106957560Y-128300000D01*
X107006843Y-128547765D01*
X107147191Y-128757809D01*
X107357235Y-128898157D01*
X107605000Y-128947440D01*
X110422758Y-128947440D01*
X110177638Y-129192560D01*
X107605000Y-129192560D01*
X107357235Y-129241843D01*
X107147191Y-129382191D01*
X107006843Y-129592235D01*
X106957560Y-129840000D01*
X106957560Y-130840000D01*
X107006843Y-131087765D01*
X107147191Y-131297809D01*
X107357235Y-131438157D01*
X107605000Y-131487440D01*
X110605000Y-131487440D01*
X110852765Y-131438157D01*
X111062809Y-131297809D01*
X111171750Y-131134769D01*
X111172058Y-131135515D01*
X111290000Y-131253663D01*
X111290000Y-132260198D01*
X110225200Y-133324998D01*
X110201702Y-133315241D01*
X109650715Y-133314760D01*
X109141485Y-133525169D01*
X108751539Y-133914436D01*
X108540241Y-134423298D01*
X108539760Y-134974285D01*
X108750169Y-135483515D01*
X109139436Y-135873461D01*
X109648298Y-136084759D01*
X110199285Y-136085240D01*
X110708515Y-135874831D01*
X111098461Y-135485564D01*
X111309759Y-134976702D01*
X111310240Y-134425715D01*
X111299670Y-134400132D01*
X112587401Y-133112401D01*
X112752148Y-132865839D01*
X112810000Y-132575000D01*
X112810000Y-131379868D01*
X112897235Y-131438157D01*
X113145000Y-131487440D01*
X113885000Y-131487440D01*
X113885000Y-133065198D01*
X113625200Y-133324998D01*
X113601702Y-133315241D01*
X113050715Y-133314760D01*
X112541485Y-133525169D01*
X112151539Y-133914436D01*
X111940241Y-134423298D01*
X111939760Y-134974285D01*
X112150169Y-135483515D01*
X112539436Y-135873461D01*
X113048298Y-136084759D01*
X113599285Y-136085240D01*
X114108515Y-135874831D01*
X114498461Y-135485564D01*
X114709759Y-134976702D01*
X114710240Y-134425715D01*
X114699670Y-134400132D01*
X115182401Y-133917401D01*
X115347148Y-133670839D01*
X115405000Y-133380000D01*
X115405000Y-131487440D01*
X116145000Y-131487440D01*
X116392765Y-131438157D01*
X116602809Y-131297809D01*
X116688471Y-131169608D01*
X116692484Y-131168810D01*
X116748675Y-131157633D01*
X117035790Y-130965790D01*
X117600787Y-130400792D01*
X117600790Y-130400790D01*
X117792633Y-130113675D01*
X117805466Y-130049161D01*
X117815000Y-130001230D01*
X117815000Y-132899995D01*
X117814999Y-132900000D01*
X117857249Y-133112401D01*
X117882367Y-133238675D01*
X117946729Y-133335000D01*
X118039913Y-133474460D01*
X118039821Y-133579971D01*
X118197058Y-133960515D01*
X118487954Y-134251919D01*
X118868223Y-134409820D01*
X119279971Y-134410179D01*
X119660515Y-134252942D01*
X119951919Y-133962046D01*
X120109820Y-133581777D01*
X120110179Y-133170029D01*
X119952942Y-132789485D01*
X119662046Y-132498081D01*
X119585000Y-132466089D01*
X119585000Y-129392585D01*
X119734820Y-129031777D01*
X119735179Y-128620029D01*
X119577942Y-128239485D01*
X119287046Y-127948081D01*
X118906777Y-127790180D01*
X118495029Y-127789821D01*
X118114485Y-127947058D01*
X117860000Y-128201099D01*
X117860000Y-126875005D01*
X117860001Y-126875000D01*
X117792633Y-126536325D01*
X117600790Y-126249210D01*
X117600787Y-126249208D01*
X117085792Y-125734212D01*
X117069016Y-125723003D01*
X116798677Y-125542369D01*
X116771142Y-125536892D01*
X116621250Y-125387000D01*
X116355652Y-125387000D01*
X116206777Y-125325182D01*
X115795029Y-125324823D01*
X115644549Y-125387000D01*
X114772000Y-125387000D01*
X114772000Y-126236250D01*
X114930750Y-126395000D01*
X114964969Y-126395000D01*
X114964821Y-126564973D01*
X115001011Y-126652560D01*
X113145000Y-126652560D01*
X112897235Y-126701843D01*
X112835001Y-126743427D01*
X112835001Y-126318913D01*
X113018691Y-126395000D01*
X114359250Y-126395000D01*
X114518000Y-126236250D01*
X114518000Y-125387000D01*
X114498000Y-125387000D01*
X114498000Y-125133000D01*
X114518000Y-125133000D01*
X114518000Y-124283750D01*
X114772000Y-124283750D01*
X114772000Y-125133000D01*
X116621250Y-125133000D01*
X116780000Y-124974250D01*
X116780000Y-124633690D01*
X116683327Y-124400301D01*
X116504698Y-124221673D01*
X116271309Y-124125000D01*
X114930750Y-124125000D01*
X114772000Y-124283750D01*
X114518000Y-124283750D01*
X114359250Y-124125000D01*
X113018691Y-124125000D01*
X112785302Y-124221673D01*
X112606673Y-124400301D01*
X112510000Y-124633690D01*
X112510000Y-124974250D01*
X112668748Y-125132998D01*
X112559798Y-125132998D01*
X111782757Y-124355957D01*
X111926919Y-124212046D01*
X112084820Y-123831777D01*
X112085179Y-123420029D01*
X111935000Y-123056567D01*
X111935000Y-120872171D01*
X112034820Y-120631777D01*
X112035179Y-120220029D01*
X111877942Y-119839485D01*
X111587046Y-119548081D01*
X111296902Y-119427603D01*
X117627002Y-119427603D01*
X117627002Y-119652109D01*
X118115302Y-120140409D01*
X118348691Y-120237082D01*
X118601310Y-120237081D01*
X118775784Y-120164811D01*
X118765478Y-120216623D01*
X118878518Y-120784908D01*
X119200425Y-121266677D01*
X119682194Y-121588584D01*
X120250479Y-121701624D01*
X120818764Y-121588584D01*
X121300533Y-121266677D01*
X121341676Y-121225533D01*
X121663584Y-120743764D01*
X121776623Y-120175479D01*
X121663584Y-119607195D01*
X121341676Y-119125426D01*
X120859907Y-118803518D01*
X120291623Y-118690479D01*
X120239811Y-118700785D01*
X120312081Y-118526310D01*
X120312082Y-118273691D01*
X120215409Y-118040302D01*
X119727109Y-117552002D01*
X119502603Y-117552002D01*
X118654605Y-118400000D01*
X118668748Y-118414143D01*
X118489143Y-118593748D01*
X118475000Y-118579605D01*
X117627002Y-119427603D01*
X111296902Y-119427603D01*
X111206777Y-119390180D01*
X110795029Y-119389821D01*
X110414485Y-119547058D01*
X110123081Y-119837954D01*
X109965180Y-120218223D01*
X109964821Y-120629971D01*
X110072216Y-120889888D01*
X109995029Y-120889821D01*
X109614485Y-121047058D01*
X109323081Y-121337954D01*
X109165180Y-121718223D01*
X109164821Y-122129971D01*
X109322058Y-122510515D01*
X109440000Y-122628663D01*
X109440000Y-123848002D01*
X109492624Y-124112560D01*
X107605000Y-124112560D01*
X107357235Y-124161843D01*
X107147191Y-124302191D01*
X107006843Y-124512235D01*
X106957560Y-124760000D01*
X99770000Y-124760000D01*
X99770000Y-120250479D01*
X102023376Y-120250479D01*
X102136416Y-120818764D01*
X102458323Y-121300533D01*
X102499467Y-121341676D01*
X102981236Y-121663584D01*
X103549521Y-121776623D01*
X104117805Y-121663584D01*
X104599574Y-121341676D01*
X104921482Y-120859907D01*
X105034521Y-120291623D01*
X105024215Y-120239812D01*
X105077235Y-120275239D01*
X105325000Y-120324522D01*
X105572765Y-120275239D01*
X105782809Y-120134891D01*
X106984891Y-118932809D01*
X107125239Y-118722765D01*
X107164316Y-118526309D01*
X116637918Y-118526309D01*
X116734591Y-118759698D01*
X117222891Y-119247998D01*
X117447397Y-119247998D01*
X118295395Y-118400000D01*
X117447397Y-117552002D01*
X117222891Y-117552002D01*
X116734592Y-118040301D01*
X116637919Y-118273690D01*
X116637918Y-118526309D01*
X107164316Y-118526309D01*
X107174522Y-118475000D01*
X107125239Y-118227235D01*
X106984891Y-118017191D01*
X106115591Y-117147891D01*
X117627002Y-117147891D01*
X117627002Y-117372397D01*
X118475000Y-118220395D01*
X119322998Y-117372397D01*
X119322998Y-117147891D01*
X118834698Y-116659591D01*
X118601309Y-116562918D01*
X118348690Y-116562919D01*
X118115301Y-116659592D01*
X117627002Y-117147891D01*
X106115591Y-117147891D01*
X105782809Y-116815109D01*
X105572765Y-116674761D01*
X105325000Y-116625478D01*
X105077235Y-116674761D01*
X104867191Y-116815109D01*
X103665109Y-118017191D01*
X103524761Y-118227235D01*
X103475478Y-118475000D01*
X103524761Y-118722765D01*
X103560187Y-118775784D01*
X103508377Y-118765478D01*
X102940092Y-118878518D01*
X102458323Y-119200425D01*
X102136416Y-119682194D01*
X102023376Y-120250479D01*
X99770000Y-120250479D01*
X99770000Y-119449931D01*
X100115498Y-117712995D01*
X101059779Y-116299779D01*
X102472997Y-115355498D01*
X104209931Y-115010000D01*
X119310069Y-115010000D01*
X121047005Y-115355498D01*
M02*
