M48
;DRILL file {KiCad (2017-06-21 revision 375ec9f)-master} date Wed Aug 16 22:12:36 2017
;FORMAT={-:-/ absolute / inch / decimal}
FMAT,2
INCH,TZ
T1C0.016
T2C0.031
T3C0.039
%
G90
G05
M72
T1
X4.06Y-5.2323
X4.2283Y-5.375
X4.3386Y-4.8002
X4.3701Y-4.7411
X4.372Y-4.8671
X4.378Y-4.9803
X4.3829Y-5.0315
X4.3907Y-5.0846
X4.4114Y-5.1398
X4.4636Y-4.8356
X4.5669Y-4.9748
X4.622Y-5.3415
X4.6585Y-4.751
X4.6732Y-5.0719
X4.688Y-5.251
X4.7805Y-5.0837
T2
X4.3278Y-5.3031
X4.4616Y-5.3031
T3
X4.0759Y-4.7351
X4.1467Y-4.6644
X4.6644Y-4.6614
X4.7351Y-4.7321
T0
M30
