G04 #@! TF.GenerationSoftware,KiCad,Pcbnew,(2017-06-21 revision 375ec9f)-master*
G04 #@! TF.CreationDate,2017-08-16T22:12:41-04:00*
G04 #@! TF.ProjectId,light_reactive_nodes,6C696768745F72656163746976655F6E,rev?*
G04 #@! TF.SameCoordinates,Original
G04 #@! TF.FileFunction,Soldermask,Top*
G04 #@! TF.FilePolarity,Negative*
%FSLAX46Y46*%
G04 Gerber Fmt 4.6, Leading zero omitted, Abs format (unit mm)*
G04 Created by KiCad (PCBNEW (2017-06-21 revision 375ec9f)-master) date Wed Aug 16 22:12:41 2017*
%MOMM*%
%LPD*%
G01*
G04 APERTURE LIST*
%ADD10C,0.100000*%
%ADD11C,2.100000*%
%ADD12C,2.100000*%
%ADD13R,1.950000X1.000000*%
%ADD14C,1.900000*%
%ADD15R,1.300000X2.100000*%
%ADD16R,2.200000X1.500000*%
%ADD17R,1.800000X1.400000*%
%ADD18C,1.200000*%
%ADD19R,1.400000X2.000000*%
G04 APERTURE END LIST*
D10*
D11*
X105325000Y-118475000D03*
D10*
G36*
X103840076Y-118475000D02*
X105325000Y-116990076D01*
X106809924Y-118475000D01*
X105325000Y-119959924D01*
X103840076Y-118475000D01*
X103840076Y-118475000D01*
G37*
D11*
X103528949Y-120271051D03*
D12*
X103528949Y-120271051D02*
X103528949Y-120271051D01*
D13*
X114525000Y-127195000D03*
X114525000Y-128465000D03*
X114525000Y-129735000D03*
X114525000Y-131005000D03*
X109125000Y-131005000D03*
X109125000Y-129735000D03*
X109125000Y-128465000D03*
X109125000Y-127195000D03*
D14*
X109925000Y-134700000D03*
X113325000Y-134700000D03*
D11*
X118475000Y-118400000D03*
D10*
G36*
X118475000Y-119884924D02*
X116990076Y-118400000D01*
X118475000Y-116915076D01*
X119959924Y-118400000D01*
X118475000Y-119884924D01*
X118475000Y-119884924D01*
G37*
D11*
X120271051Y-120196051D03*
D12*
X120271051Y-120196051D02*
X120271051Y-120196051D01*
D14*
X121416726Y-134458274D03*
D10*
G36*
X121416726Y-133114771D02*
X122760229Y-134458274D01*
X121416726Y-135801777D01*
X120073223Y-134458274D01*
X121416726Y-133114771D01*
X121416726Y-133114771D01*
G37*
D14*
X119083274Y-136791726D03*
D10*
G36*
X119083274Y-135448223D02*
X120426777Y-136791726D01*
X119083274Y-138135229D01*
X117739771Y-136791726D01*
X119083274Y-135448223D01*
X119083274Y-135448223D01*
G37*
D15*
X106375000Y-129025000D03*
X103475000Y-129025000D03*
D16*
X108650000Y-121225000D03*
X114850000Y-121225000D03*
X108650000Y-124925000D03*
X114850000Y-124925000D03*
D15*
X120175000Y-124300000D03*
X117275000Y-124300000D03*
D17*
X103825000Y-123725000D03*
X106025000Y-122775000D03*
X106025000Y-124675000D03*
D18*
X103067462Y-116707538D03*
D10*
G36*
X103032107Y-115823655D02*
X103951345Y-116742893D01*
X103102817Y-117591421D01*
X102183579Y-116672183D01*
X103032107Y-115823655D01*
X103032107Y-115823655D01*
G37*
D18*
X101582538Y-118192462D03*
D10*
G36*
X101547183Y-117308579D02*
X102466421Y-118227817D01*
X101617893Y-119076345D01*
X100698655Y-118157107D01*
X101547183Y-117308579D01*
X101547183Y-117308579D01*
G37*
D14*
X101933274Y-134333274D03*
D10*
G36*
X100589771Y-134333274D02*
X101933274Y-132989771D01*
X103276777Y-134333274D01*
X101933274Y-135676777D01*
X100589771Y-134333274D01*
X100589771Y-134333274D01*
G37*
D14*
X104266726Y-136666726D03*
D10*
G36*
X102923223Y-136666726D02*
X104266726Y-135323223D01*
X105610229Y-136666726D01*
X104266726Y-138010229D01*
X102923223Y-136666726D01*
X102923223Y-136666726D01*
G37*
D15*
X117275000Y-131350000D03*
X120175000Y-131350000D03*
X106400000Y-131425000D03*
X103500000Y-131425000D03*
X103475000Y-126625000D03*
X106375000Y-126625000D03*
X120175000Y-129050000D03*
X117275000Y-129050000D03*
X120175000Y-126650000D03*
X117275000Y-126650000D03*
D17*
X105500000Y-134225000D03*
X107700000Y-133275000D03*
X107700000Y-135175000D03*
X115475000Y-133225000D03*
X115475000Y-135125000D03*
X117675000Y-134175000D03*
D15*
X107975000Y-118550000D03*
X110875000Y-118550000D03*
D19*
X115525000Y-118550000D03*
X112525000Y-118550000D03*
M02*
