G04 #@! TF.GenerationSoftware,KiCad,Pcbnew,(2017-06-21 revision 375ec9f)-master*
G04 #@! TF.CreationDate,2017-07-22T22:15:58-04:00*
G04 #@! TF.ProjectId,light_reactive_nodes,6C696768745F72656163746976655F6E,rev?*
G04 #@! TF.SameCoordinates,Original
G04 #@! TF.FileFunction,Legend,Top*
G04 #@! TF.FilePolarity,Positive*
%FSLAX46Y46*%
G04 Gerber Fmt 4.6, Leading zero omitted, Abs format (unit mm)*
G04 Created by KiCad (PCBNEW (2017-06-21 revision 375ec9f)-master) date Sat Jul 22 22:15:58 2017*
%MOMM*%
%LPD*%
G01*
G04 APERTURE LIST*
%ADD10C,0.100000*%
%ADD11C,0.150000*%
%ADD12C,0.120000*%
%ADD13C,0.125000*%
G04 APERTURE END LIST*
D10*
D11*
X114290000Y-124420000D02*
X109210000Y-124420000D01*
X109210000Y-124420000D02*
X109210000Y-134580000D01*
X109210000Y-134580000D02*
X114290000Y-134580000D01*
X114290000Y-134580000D02*
X114290000Y-124420000D01*
X113020000Y-124420000D02*
X113020000Y-125690000D01*
X113020000Y-125690000D02*
X110480000Y-125690000D01*
X110480000Y-125690000D02*
X110480000Y-124420000D01*
D12*
X105530000Y-132330000D02*
X104200000Y-132330000D01*
X105530000Y-131000000D02*
X105530000Y-132330000D01*
X102930000Y-129730000D02*
X105530000Y-129730000D01*
X102930000Y-132330000D02*
X102930000Y-129730000D01*
X100330000Y-132330000D02*
X102930000Y-132330000D01*
X100330000Y-124590000D02*
X100330000Y-132330000D01*
X105530000Y-124590000D02*
X100330000Y-124590000D01*
X105530000Y-129730000D02*
X105530000Y-124590000D01*
X116400000Y-117880000D02*
X118400000Y-117880000D01*
X118400000Y-114920000D02*
X116400000Y-114920000D01*
X113400000Y-124000000D02*
X113400000Y-122400000D01*
X113400000Y-122400000D02*
X110800000Y-122400000D01*
X113400000Y-124000000D02*
X110800000Y-124000000D01*
X122500000Y-137850000D02*
X122500000Y-136150000D01*
X122450000Y-136150000D02*
X118400000Y-136150000D01*
X122450000Y-137850000D02*
X118400000Y-137850000D01*
X105900000Y-135050000D02*
X105900000Y-133350000D01*
X105850000Y-133350000D02*
X101800000Y-133350000D01*
X105850000Y-135050000D02*
X101800000Y-135050000D01*
X111670000Y-117730000D02*
X114270000Y-117730000D01*
X114270000Y-117730000D02*
X114270000Y-115070000D01*
X114270000Y-115070000D02*
X111670000Y-115070000D01*
X111670000Y-115070000D02*
X111670000Y-117730000D01*
X110400000Y-117730000D02*
X109070000Y-117730000D01*
X109070000Y-117730000D02*
X109070000Y-116400000D01*
X111730000Y-118870000D02*
X109130000Y-118870000D01*
X109130000Y-118870000D02*
X109130000Y-121530000D01*
X109130000Y-121530000D02*
X111730000Y-121530000D01*
X111730000Y-121530000D02*
X111730000Y-118870000D01*
X113000000Y-118870000D02*
X114330000Y-118870000D01*
X114330000Y-118870000D02*
X114330000Y-120200000D01*
X107360000Y-121180000D02*
X107360000Y-120250000D01*
X107360000Y-118020000D02*
X107360000Y-118950000D01*
X107360000Y-118020000D02*
X105200000Y-118020000D01*
X107360000Y-121180000D02*
X105900000Y-121180000D01*
X122960000Y-127780000D02*
X122960000Y-126850000D01*
X122960000Y-124620000D02*
X122960000Y-125550000D01*
X122960000Y-124620000D02*
X120800000Y-124620000D01*
X122960000Y-127780000D02*
X121500000Y-127780000D01*
X105780000Y-136440000D02*
X105780000Y-137900000D01*
X102620000Y-136440000D02*
X102620000Y-138600000D01*
X102620000Y-136440000D02*
X103550000Y-136440000D01*
X105780000Y-136440000D02*
X104850000Y-136440000D01*
X110155487Y-135081751D02*
G75*
G03X110200000Y-139350000I1544513J-2118249D01*
G01*
X113228234Y-139365526D02*
G75*
G03X113250000Y-135050000I-1528234J2165526D01*
G01*
X113250000Y-139350000D02*
X110200000Y-139350000D01*
X113250000Y-135050000D02*
X110200000Y-135050000D01*
X120600000Y-135670000D02*
X118600000Y-135670000D01*
X118600000Y-133530000D02*
X120600000Y-133530000D01*
X105000000Y-115330000D02*
X107000000Y-115330000D01*
X107000000Y-117470000D02*
X105000000Y-117470000D01*
X106430000Y-138250000D02*
X106430000Y-136250000D01*
X108570000Y-136250000D02*
X108570000Y-138250000D01*
X103670000Y-120800000D02*
X103670000Y-122800000D01*
X101530000Y-122800000D02*
X101530000Y-120800000D01*
X118600000Y-130930000D02*
X120600000Y-130930000D01*
X120600000Y-133070000D02*
X118600000Y-133070000D01*
X105200000Y-121730000D02*
X107200000Y-121730000D01*
X107200000Y-123870000D02*
X105200000Y-123870000D01*
X118400000Y-128330000D02*
X120400000Y-128330000D01*
X120400000Y-130470000D02*
X118400000Y-130470000D01*
X117070000Y-136000000D02*
X117070000Y-138000000D01*
X114930000Y-138000000D02*
X114930000Y-136000000D01*
X117950000Y-123900000D02*
X117500000Y-123450000D01*
X116700000Y-122200000D02*
X116700000Y-120200000D01*
X117500000Y-118950000D02*
X117950000Y-118500000D01*
X117950000Y-118500000D02*
X120850000Y-118500000D01*
X120850000Y-118500000D02*
X121300000Y-118950000D01*
X122100000Y-120200000D02*
X122100000Y-122200000D01*
X121300000Y-123450000D02*
X120850000Y-123900000D01*
X120850000Y-123900000D02*
X117950000Y-123900000D01*
D11*
X112345380Y-130642904D02*
X113154904Y-130642904D01*
X113250142Y-130595285D01*
X113297761Y-130547666D01*
X113345380Y-130452428D01*
X113345380Y-130261952D01*
X113297761Y-130166714D01*
X113250142Y-130119095D01*
X113154904Y-130071476D01*
X112345380Y-130071476D01*
X113345380Y-129071476D02*
X113345380Y-129642904D01*
X113345380Y-129357190D02*
X112345380Y-129357190D01*
X112488238Y-129452428D01*
X112583476Y-129547666D01*
X112631095Y-129642904D01*
X106357142Y-129414285D02*
X106404761Y-129461904D01*
X106452380Y-129604761D01*
X106452380Y-129700000D01*
X106404761Y-129842857D01*
X106309523Y-129938095D01*
X106214285Y-129985714D01*
X106023809Y-130033333D01*
X105880952Y-130033333D01*
X105690476Y-129985714D01*
X105595238Y-129938095D01*
X105500000Y-129842857D01*
X105452380Y-129700000D01*
X105452380Y-129604761D01*
X105500000Y-129461904D01*
X105547619Y-129414285D01*
X105452380Y-128795238D02*
X105452380Y-128604761D01*
X105500000Y-128509523D01*
X105595238Y-128414285D01*
X105785714Y-128366666D01*
X106119047Y-128366666D01*
X106309523Y-128414285D01*
X106404761Y-128509523D01*
X106452380Y-128604761D01*
X106452380Y-128795238D01*
X106404761Y-128890476D01*
X106309523Y-128985714D01*
X106119047Y-129033333D01*
X105785714Y-129033333D01*
X105595238Y-128985714D01*
X105500000Y-128890476D01*
X105452380Y-128795238D01*
X106452380Y-127938095D02*
X105452380Y-127938095D01*
X106452380Y-127366666D01*
X105452380Y-127366666D01*
X106452380Y-126366666D02*
X106452380Y-126938095D01*
X106452380Y-126652380D02*
X105452380Y-126652380D01*
X105595238Y-126747619D01*
X105690476Y-126842857D01*
X105738095Y-126938095D01*
X117757142Y-116566666D02*
X117804761Y-116614285D01*
X117852380Y-116757142D01*
X117852380Y-116852380D01*
X117804761Y-116995238D01*
X117709523Y-117090476D01*
X117614285Y-117138095D01*
X117423809Y-117185714D01*
X117280952Y-117185714D01*
X117090476Y-117138095D01*
X116995238Y-117090476D01*
X116900000Y-116995238D01*
X116852380Y-116852380D01*
X116852380Y-116757142D01*
X116900000Y-116614285D01*
X116947619Y-116566666D01*
X117852380Y-115614285D02*
X117852380Y-116185714D01*
X117852380Y-115900000D02*
X116852380Y-115900000D01*
X116995238Y-115995238D01*
X117090476Y-116090476D01*
X117138095Y-116185714D01*
X111061904Y-125252380D02*
X111061904Y-124252380D01*
X111300000Y-124252380D01*
X111442857Y-124300000D01*
X111538095Y-124395238D01*
X111585714Y-124490476D01*
X111633333Y-124680952D01*
X111633333Y-124823809D01*
X111585714Y-125014285D01*
X111538095Y-125109523D01*
X111442857Y-125204761D01*
X111300000Y-125252380D01*
X111061904Y-125252380D01*
X112585714Y-125252380D02*
X112014285Y-125252380D01*
X112300000Y-125252380D02*
X112300000Y-124252380D01*
X112204761Y-124395238D01*
X112109523Y-124490476D01*
X112014285Y-124538095D01*
X120452380Y-137738095D02*
X119452380Y-137738095D01*
X119452380Y-137500000D01*
X119500000Y-137357142D01*
X119595238Y-137261904D01*
X119690476Y-137214285D01*
X119880952Y-137166666D01*
X120023809Y-137166666D01*
X120214285Y-137214285D01*
X120309523Y-137261904D01*
X120404761Y-137357142D01*
X120452380Y-137500000D01*
X120452380Y-137738095D01*
X119547619Y-136785714D02*
X119500000Y-136738095D01*
X119452380Y-136642857D01*
X119452380Y-136404761D01*
X119500000Y-136309523D01*
X119547619Y-136261904D01*
X119642857Y-136214285D01*
X119738095Y-136214285D01*
X119880952Y-136261904D01*
X120452380Y-136833333D01*
X120452380Y-136214285D01*
X103852380Y-134938095D02*
X102852380Y-134938095D01*
X102852380Y-134700000D01*
X102900000Y-134557142D01*
X102995238Y-134461904D01*
X103090476Y-134414285D01*
X103280952Y-134366666D01*
X103423809Y-134366666D01*
X103614285Y-134414285D01*
X103709523Y-134461904D01*
X103804761Y-134557142D01*
X103852380Y-134700000D01*
X103852380Y-134938095D01*
X102852380Y-134033333D02*
X102852380Y-133414285D01*
X103233333Y-133747619D01*
X103233333Y-133604761D01*
X103280952Y-133509523D01*
X103328571Y-133461904D01*
X103423809Y-133414285D01*
X103661904Y-133414285D01*
X103757142Y-133461904D01*
X103804761Y-133509523D01*
X103852380Y-133604761D01*
X103852380Y-133890476D01*
X103804761Y-133985714D01*
X103757142Y-134033333D01*
D13*
X111266666Y-121526190D02*
X111266666Y-121883333D01*
X111219047Y-121954761D01*
X111123809Y-122002380D01*
X110980952Y-122026190D01*
X110885714Y-122026190D01*
X112266666Y-122026190D02*
X111695238Y-122026190D01*
X111980952Y-122026190D02*
X111980952Y-121526190D01*
X111885714Y-121597619D01*
X111790476Y-121645238D01*
X111695238Y-121669047D01*
X110790476Y-118626190D02*
X110790476Y-118126190D01*
X111123809Y-118483333D01*
X111457142Y-118126190D01*
X111457142Y-118626190D01*
X112457142Y-118626190D02*
X111885714Y-118626190D01*
X112171428Y-118626190D02*
X112171428Y-118126190D01*
X112076190Y-118197619D01*
X111980952Y-118245238D01*
X111885714Y-118269047D01*
D11*
X104947619Y-118695238D02*
X104900000Y-118790476D01*
X104804761Y-118885714D01*
X104661904Y-119028571D01*
X104614285Y-119123809D01*
X104614285Y-119219047D01*
X104852380Y-119171428D02*
X104804761Y-119266666D01*
X104709523Y-119361904D01*
X104519047Y-119409523D01*
X104185714Y-119409523D01*
X103995238Y-119361904D01*
X103900000Y-119266666D01*
X103852380Y-119171428D01*
X103852380Y-118980952D01*
X103900000Y-118885714D01*
X103995238Y-118790476D01*
X104185714Y-118742857D01*
X104519047Y-118742857D01*
X104709523Y-118790476D01*
X104804761Y-118885714D01*
X104852380Y-118980952D01*
X104852380Y-119171428D01*
X104852380Y-117790476D02*
X104852380Y-118361904D01*
X104852380Y-118076190D02*
X103852380Y-118076190D01*
X103995238Y-118171428D01*
X104090476Y-118266666D01*
X104138095Y-118361904D01*
D13*
X122473809Y-126295238D02*
X122450000Y-126390476D01*
X122402380Y-126485714D01*
X122330952Y-126628571D01*
X122307142Y-126723809D01*
X122307142Y-126819047D01*
X122426190Y-126771428D02*
X122402380Y-126866666D01*
X122354761Y-126961904D01*
X122259523Y-127009523D01*
X122092857Y-127009523D01*
X121997619Y-126961904D01*
X121950000Y-126866666D01*
X121926190Y-126771428D01*
X121926190Y-126580952D01*
X121950000Y-126485714D01*
X121997619Y-126390476D01*
X122092857Y-126342857D01*
X122259523Y-126342857D01*
X122354761Y-126390476D01*
X122402380Y-126485714D01*
X122426190Y-126580952D01*
X122426190Y-126771428D01*
X121973809Y-125961904D02*
X121950000Y-125914285D01*
X121926190Y-125819047D01*
X121926190Y-125580952D01*
X121950000Y-125485714D01*
X121973809Y-125438095D01*
X122021428Y-125390476D01*
X122069047Y-125390476D01*
X122140476Y-125438095D01*
X122426190Y-126009523D01*
X122426190Y-125390476D01*
X104104761Y-137473809D02*
X104009523Y-137450000D01*
X103914285Y-137402380D01*
X103771428Y-137330952D01*
X103676190Y-137307142D01*
X103580952Y-137307142D01*
X103628571Y-137426190D02*
X103533333Y-137402380D01*
X103438095Y-137354761D01*
X103390476Y-137259523D01*
X103390476Y-137092857D01*
X103438095Y-136997619D01*
X103533333Y-136950000D01*
X103628571Y-136926190D01*
X103819047Y-136926190D01*
X103914285Y-136950000D01*
X104009523Y-136997619D01*
X104057142Y-137092857D01*
X104057142Y-137259523D01*
X104009523Y-137354761D01*
X103914285Y-137402380D01*
X103819047Y-137426190D01*
X103628571Y-137426190D01*
X104390476Y-136926190D02*
X105009523Y-136926190D01*
X104676190Y-137116666D01*
X104819047Y-137116666D01*
X104914285Y-137140476D01*
X104961904Y-137164285D01*
X105009523Y-137211904D01*
X105009523Y-137330952D01*
X104961904Y-137378571D01*
X104914285Y-137402380D01*
X104819047Y-137426190D01*
X104533333Y-137426190D01*
X104438095Y-137402380D01*
X104390476Y-137378571D01*
D11*
X112252380Y-137366666D02*
X111776190Y-137700000D01*
X112252380Y-137938095D02*
X111252380Y-137938095D01*
X111252380Y-137557142D01*
X111300000Y-137461904D01*
X111347619Y-137414285D01*
X111442857Y-137366666D01*
X111585714Y-137366666D01*
X111680952Y-137414285D01*
X111728571Y-137461904D01*
X111776190Y-137557142D01*
X111776190Y-137938095D01*
X112252380Y-136414285D02*
X112252380Y-136985714D01*
X112252380Y-136700000D02*
X111252380Y-136700000D01*
X111395238Y-136795238D01*
X111490476Y-136890476D01*
X111538095Y-136985714D01*
X120052380Y-134766666D02*
X119576190Y-135100000D01*
X120052380Y-135338095D02*
X119052380Y-135338095D01*
X119052380Y-134957142D01*
X119100000Y-134861904D01*
X119147619Y-134814285D01*
X119242857Y-134766666D01*
X119385714Y-134766666D01*
X119480952Y-134814285D01*
X119528571Y-134861904D01*
X119576190Y-134957142D01*
X119576190Y-135338095D01*
X119147619Y-134385714D02*
X119100000Y-134338095D01*
X119052380Y-134242857D01*
X119052380Y-134004761D01*
X119100000Y-133909523D01*
X119147619Y-133861904D01*
X119242857Y-133814285D01*
X119338095Y-133814285D01*
X119480952Y-133861904D01*
X120052380Y-134433333D01*
X120052380Y-133814285D01*
X106452380Y-116566666D02*
X105976190Y-116900000D01*
X106452380Y-117138095D02*
X105452380Y-117138095D01*
X105452380Y-116757142D01*
X105500000Y-116661904D01*
X105547619Y-116614285D01*
X105642857Y-116566666D01*
X105785714Y-116566666D01*
X105880952Y-116614285D01*
X105928571Y-116661904D01*
X105976190Y-116757142D01*
X105976190Y-117138095D01*
X105452380Y-116233333D02*
X105452380Y-115614285D01*
X105833333Y-115947619D01*
X105833333Y-115804761D01*
X105880952Y-115709523D01*
X105928571Y-115661904D01*
X106023809Y-115614285D01*
X106261904Y-115614285D01*
X106357142Y-115661904D01*
X106404761Y-115709523D01*
X106452380Y-115804761D01*
X106452380Y-116090476D01*
X106404761Y-116185714D01*
X106357142Y-116233333D01*
X107233333Y-137702380D02*
X106900000Y-137226190D01*
X106661904Y-137702380D02*
X106661904Y-136702380D01*
X107042857Y-136702380D01*
X107138095Y-136750000D01*
X107185714Y-136797619D01*
X107233333Y-136892857D01*
X107233333Y-137035714D01*
X107185714Y-137130952D01*
X107138095Y-137178571D01*
X107042857Y-137226190D01*
X106661904Y-137226190D01*
X108090476Y-137035714D02*
X108090476Y-137702380D01*
X107852380Y-136654761D02*
X107614285Y-137369047D01*
X108233333Y-137369047D01*
X102433333Y-122252380D02*
X102100000Y-121776190D01*
X101861904Y-122252380D02*
X101861904Y-121252380D01*
X102242857Y-121252380D01*
X102338095Y-121300000D01*
X102385714Y-121347619D01*
X102433333Y-121442857D01*
X102433333Y-121585714D01*
X102385714Y-121680952D01*
X102338095Y-121728571D01*
X102242857Y-121776190D01*
X101861904Y-121776190D01*
X103338095Y-121252380D02*
X102861904Y-121252380D01*
X102814285Y-121728571D01*
X102861904Y-121680952D01*
X102957142Y-121633333D01*
X103195238Y-121633333D01*
X103290476Y-121680952D01*
X103338095Y-121728571D01*
X103385714Y-121823809D01*
X103385714Y-122061904D01*
X103338095Y-122157142D01*
X103290476Y-122204761D01*
X103195238Y-122252380D01*
X102957142Y-122252380D01*
X102861904Y-122204761D01*
X102814285Y-122157142D01*
X120052380Y-132166666D02*
X119576190Y-132500000D01*
X120052380Y-132738095D02*
X119052380Y-132738095D01*
X119052380Y-132357142D01*
X119100000Y-132261904D01*
X119147619Y-132214285D01*
X119242857Y-132166666D01*
X119385714Y-132166666D01*
X119480952Y-132214285D01*
X119528571Y-132261904D01*
X119576190Y-132357142D01*
X119576190Y-132738095D01*
X119052380Y-131309523D02*
X119052380Y-131500000D01*
X119100000Y-131595238D01*
X119147619Y-131642857D01*
X119290476Y-131738095D01*
X119480952Y-131785714D01*
X119861904Y-131785714D01*
X119957142Y-131738095D01*
X120004761Y-131690476D01*
X120052380Y-131595238D01*
X120052380Y-131404761D01*
X120004761Y-131309523D01*
X119957142Y-131261904D01*
X119861904Y-131214285D01*
X119623809Y-131214285D01*
X119528571Y-131261904D01*
X119480952Y-131309523D01*
X119433333Y-131404761D01*
X119433333Y-131595238D01*
X119480952Y-131690476D01*
X119528571Y-131738095D01*
X119623809Y-131785714D01*
X106652380Y-122966666D02*
X106176190Y-123300000D01*
X106652380Y-123538095D02*
X105652380Y-123538095D01*
X105652380Y-123157142D01*
X105700000Y-123061904D01*
X105747619Y-123014285D01*
X105842857Y-122966666D01*
X105985714Y-122966666D01*
X106080952Y-123014285D01*
X106128571Y-123061904D01*
X106176190Y-123157142D01*
X106176190Y-123538095D01*
X105652380Y-122633333D02*
X105652380Y-121966666D01*
X106652380Y-122395238D01*
X119852380Y-129566666D02*
X119376190Y-129900000D01*
X119852380Y-130138095D02*
X118852380Y-130138095D01*
X118852380Y-129757142D01*
X118900000Y-129661904D01*
X118947619Y-129614285D01*
X119042857Y-129566666D01*
X119185714Y-129566666D01*
X119280952Y-129614285D01*
X119328571Y-129661904D01*
X119376190Y-129757142D01*
X119376190Y-130138095D01*
X119280952Y-128995238D02*
X119233333Y-129090476D01*
X119185714Y-129138095D01*
X119090476Y-129185714D01*
X119042857Y-129185714D01*
X118947619Y-129138095D01*
X118900000Y-129090476D01*
X118852380Y-128995238D01*
X118852380Y-128804761D01*
X118900000Y-128709523D01*
X118947619Y-128661904D01*
X119042857Y-128614285D01*
X119090476Y-128614285D01*
X119185714Y-128661904D01*
X119233333Y-128709523D01*
X119280952Y-128804761D01*
X119280952Y-128995238D01*
X119328571Y-129090476D01*
X119376190Y-129138095D01*
X119471428Y-129185714D01*
X119661904Y-129185714D01*
X119757142Y-129138095D01*
X119804761Y-129090476D01*
X119852380Y-128995238D01*
X119852380Y-128804761D01*
X119804761Y-128709523D01*
X119757142Y-128661904D01*
X119661904Y-128614285D01*
X119471428Y-128614285D01*
X119376190Y-128661904D01*
X119328571Y-128709523D01*
X119280952Y-128804761D01*
X115833333Y-137452380D02*
X115500000Y-136976190D01*
X115261904Y-137452380D02*
X115261904Y-136452380D01*
X115642857Y-136452380D01*
X115738095Y-136500000D01*
X115785714Y-136547619D01*
X115833333Y-136642857D01*
X115833333Y-136785714D01*
X115785714Y-136880952D01*
X115738095Y-136928571D01*
X115642857Y-136976190D01*
X115261904Y-136976190D01*
X116309523Y-137452380D02*
X116500000Y-137452380D01*
X116595238Y-137404761D01*
X116642857Y-137357142D01*
X116738095Y-137214285D01*
X116785714Y-137023809D01*
X116785714Y-136642857D01*
X116738095Y-136547619D01*
X116690476Y-136500000D01*
X116595238Y-136452380D01*
X116404761Y-136452380D01*
X116309523Y-136500000D01*
X116261904Y-136547619D01*
X116214285Y-136642857D01*
X116214285Y-136880952D01*
X116261904Y-136976190D01*
X116309523Y-137023809D01*
X116404761Y-137071428D01*
X116595238Y-137071428D01*
X116690476Y-137023809D01*
X116738095Y-136976190D01*
X116785714Y-136880952D01*
X118066666Y-121604761D02*
X118209523Y-121652380D01*
X118447619Y-121652380D01*
X118542857Y-121604761D01*
X118590476Y-121557142D01*
X118638095Y-121461904D01*
X118638095Y-121366666D01*
X118590476Y-121271428D01*
X118542857Y-121223809D01*
X118447619Y-121176190D01*
X118257142Y-121128571D01*
X118161904Y-121080952D01*
X118114285Y-121033333D01*
X118066666Y-120938095D01*
X118066666Y-120842857D01*
X118114285Y-120747619D01*
X118161904Y-120700000D01*
X118257142Y-120652380D01*
X118495238Y-120652380D01*
X118638095Y-120700000D01*
X118971428Y-120652380D02*
X119209523Y-121652380D01*
X119400000Y-120938095D01*
X119590476Y-121652380D01*
X119828571Y-120652380D01*
X120733333Y-121652380D02*
X120161904Y-121652380D01*
X120447619Y-121652380D02*
X120447619Y-120652380D01*
X120352380Y-120795238D01*
X120257142Y-120890476D01*
X120161904Y-120938095D01*
M02*
