M48
;DRILL file {KiCad (2017-06-21 revision 375ec9f)-master} date Sat Jul 22 22:17:11 2017
;FORMAT={-:-/ absolute / inch / decimal}
FMAT,2
INCH,TZ
T1C0.016
T2C0.031
T3C0.039
%
G90
G05
M72
T1
X4.Y-5.3937
X4.0472Y-4.6772
X4.1732Y-5.2126
X4.4724Y-4.9606
X4.4724Y-5.0472
X4.4724Y-5.1575
X4.4961Y-4.8898
X4.5748Y-4.7717
X4.7165Y-5.0236
X4.7638Y-4.5906
X4.811Y-5.1024
T2
X4.3307Y-5.4016
X4.4646Y-5.4016
T3
X4.0024Y-4.9575
X4.0024Y-5.0575
X4.0024Y-5.1575
X4.1024Y-4.9575
X4.1024Y-5.0575
X4.1024Y-5.1575
X4.3465Y-4.5827
X4.4465Y-4.5827
X4.3488Y-4.7323
X4.4488Y-4.7323
T0
M30
