G04 #@! TF.GenerationSoftware,KiCad,Pcbnew,(2017-06-21 revision 375ec9f)-master*
G04 #@! TF.CreationDate,2017-07-22T22:15:58-04:00*
G04 #@! TF.ProjectId,light_reactive_nodes,6C696768745F72656163746976655F6E,rev?*
G04 #@! TF.SameCoordinates,Original
G04 #@! TF.FileFunction,Legend,Bot*
G04 #@! TF.FilePolarity,Positive*
%FSLAX46Y46*%
G04 Gerber Fmt 4.6, Leading zero omitted, Abs format (unit mm)*
G04 Created by KiCad (PCBNEW (2017-06-21 revision 375ec9f)-master) date Sat Jul 22 22:15:58 2017*
%MOMM*%
%LPD*%
G01*
G04 APERTURE LIST*
%ADD10C,0.100000*%
%ADD11C,0.250000*%
G04 APERTURE END LIST*
D10*
D11*
X119028571Y-118995238D02*
X119028571Y-118519047D01*
X117528571Y-118519047D01*
X119028571Y-119328571D02*
X118028571Y-119328571D01*
X117528571Y-119328571D02*
X117600000Y-119280952D01*
X117671428Y-119328571D01*
X117600000Y-119376190D01*
X117528571Y-119328571D01*
X117671428Y-119328571D01*
X118028571Y-120233333D02*
X119242857Y-120233333D01*
X119385714Y-120185714D01*
X119457142Y-120138095D01*
X119528571Y-120042857D01*
X119528571Y-119900000D01*
X119457142Y-119804761D01*
X118957142Y-120233333D02*
X119028571Y-120138095D01*
X119028571Y-119947619D01*
X118957142Y-119852380D01*
X118885714Y-119804761D01*
X118742857Y-119757142D01*
X118314285Y-119757142D01*
X118171428Y-119804761D01*
X118100000Y-119852380D01*
X118028571Y-119947619D01*
X118028571Y-120138095D01*
X118100000Y-120233333D01*
X119028571Y-120709523D02*
X117528571Y-120709523D01*
X119028571Y-121138095D02*
X118242857Y-121138095D01*
X118100000Y-121090476D01*
X118028571Y-120995238D01*
X118028571Y-120852380D01*
X118100000Y-120757142D01*
X118171428Y-120709523D01*
X118028571Y-121471428D02*
X118028571Y-121852380D01*
X117528571Y-121614285D02*
X118814285Y-121614285D01*
X118957142Y-121661904D01*
X119028571Y-121757142D01*
X119028571Y-121852380D01*
X118457142Y-122185714D02*
X118457142Y-122947619D01*
X119028571Y-123995238D02*
X118314285Y-123661904D01*
X119028571Y-123423809D02*
X117528571Y-123423809D01*
X117528571Y-123804761D01*
X117600000Y-123900000D01*
X117671428Y-123947619D01*
X117814285Y-123995238D01*
X118028571Y-123995238D01*
X118171428Y-123947619D01*
X118242857Y-123900000D01*
X118314285Y-123804761D01*
X118314285Y-123423809D01*
X118957142Y-124804761D02*
X119028571Y-124709523D01*
X119028571Y-124519047D01*
X118957142Y-124423809D01*
X118814285Y-124376190D01*
X118242857Y-124376190D01*
X118100000Y-124423809D01*
X118028571Y-124519047D01*
X118028571Y-124709523D01*
X118100000Y-124804761D01*
X118242857Y-124852380D01*
X118385714Y-124852380D01*
X118528571Y-124376190D01*
X119028571Y-125709523D02*
X118242857Y-125709523D01*
X118100000Y-125661904D01*
X118028571Y-125566666D01*
X118028571Y-125376190D01*
X118100000Y-125280952D01*
X118957142Y-125709523D02*
X119028571Y-125614285D01*
X119028571Y-125376190D01*
X118957142Y-125280952D01*
X118814285Y-125233333D01*
X118671428Y-125233333D01*
X118528571Y-125280952D01*
X118457142Y-125376190D01*
X118457142Y-125614285D01*
X118385714Y-125709523D01*
X118957142Y-126614285D02*
X119028571Y-126519047D01*
X119028571Y-126328571D01*
X118957142Y-126233333D01*
X118885714Y-126185714D01*
X118742857Y-126138095D01*
X118314285Y-126138095D01*
X118171428Y-126185714D01*
X118100000Y-126233333D01*
X118028571Y-126328571D01*
X118028571Y-126519047D01*
X118100000Y-126614285D01*
X118028571Y-126900000D02*
X118028571Y-127280952D01*
X117528571Y-127042857D02*
X118814285Y-127042857D01*
X118957142Y-127090476D01*
X119028571Y-127185714D01*
X119028571Y-127280952D01*
X119028571Y-127614285D02*
X118028571Y-127614285D01*
X117528571Y-127614285D02*
X117600000Y-127566666D01*
X117671428Y-127614285D01*
X117600000Y-127661904D01*
X117528571Y-127614285D01*
X117671428Y-127614285D01*
X118028571Y-127995238D02*
X119028571Y-128233333D01*
X118028571Y-128471428D01*
X118957142Y-129233333D02*
X119028571Y-129138095D01*
X119028571Y-128947619D01*
X118957142Y-128852380D01*
X118814285Y-128804761D01*
X118242857Y-128804761D01*
X118100000Y-128852380D01*
X118028571Y-128947619D01*
X118028571Y-129138095D01*
X118100000Y-129233333D01*
X118242857Y-129280952D01*
X118385714Y-129280952D01*
X118528571Y-128804761D01*
X119028571Y-130471428D02*
X117528571Y-130471428D01*
X119028571Y-131042857D01*
X117528571Y-131042857D01*
X119028571Y-131661904D02*
X118957142Y-131566666D01*
X118885714Y-131519047D01*
X118742857Y-131471428D01*
X118314285Y-131471428D01*
X118171428Y-131519047D01*
X118100000Y-131566666D01*
X118028571Y-131661904D01*
X118028571Y-131804761D01*
X118100000Y-131900000D01*
X118171428Y-131947619D01*
X118314285Y-131995238D01*
X118742857Y-131995238D01*
X118885714Y-131947619D01*
X118957142Y-131900000D01*
X119028571Y-131804761D01*
X119028571Y-131661904D01*
X119028571Y-132852380D02*
X117528571Y-132852380D01*
X118957142Y-132852380D02*
X119028571Y-132757142D01*
X119028571Y-132566666D01*
X118957142Y-132471428D01*
X118885714Y-132423809D01*
X118742857Y-132376190D01*
X118314285Y-132376190D01*
X118171428Y-132423809D01*
X118100000Y-132471428D01*
X118028571Y-132566666D01*
X118028571Y-132757142D01*
X118100000Y-132852380D01*
X118957142Y-133709523D02*
X119028571Y-133614285D01*
X119028571Y-133423809D01*
X118957142Y-133328571D01*
X118814285Y-133280952D01*
X118242857Y-133280952D01*
X118100000Y-133328571D01*
X118028571Y-133423809D01*
X118028571Y-133614285D01*
X118100000Y-133709523D01*
X118242857Y-133757142D01*
X118385714Y-133757142D01*
X118528571Y-133280952D01*
X117528571Y-134804761D02*
X119028571Y-135138095D01*
X117528571Y-135471428D01*
X119028571Y-136328571D02*
X119028571Y-135757142D01*
X119028571Y-136042857D02*
X117528571Y-136042857D01*
X117742857Y-135947619D01*
X117885714Y-135852380D01*
X117957142Y-135757142D01*
X121100000Y-119376190D02*
X121100000Y-119852380D01*
X121528571Y-119280952D02*
X120028571Y-119614285D01*
X121528571Y-119947619D01*
X121528571Y-120709523D02*
X120742857Y-120709523D01*
X120600000Y-120661904D01*
X120528571Y-120566666D01*
X120528571Y-120376190D01*
X120600000Y-120280952D01*
X121457142Y-120709523D02*
X121528571Y-120614285D01*
X121528571Y-120376190D01*
X121457142Y-120280952D01*
X121314285Y-120233333D01*
X121171428Y-120233333D01*
X121028571Y-120280952D01*
X120957142Y-120376190D01*
X120957142Y-120614285D01*
X120885714Y-120709523D01*
X121528571Y-121185714D02*
X120528571Y-121185714D01*
X120814285Y-121185714D02*
X120671428Y-121233333D01*
X120600000Y-121280952D01*
X120528571Y-121376190D01*
X120528571Y-121471428D01*
X121528571Y-121947619D02*
X121457142Y-121852380D01*
X121385714Y-121804761D01*
X121242857Y-121757142D01*
X120814285Y-121757142D01*
X120671428Y-121804761D01*
X120600000Y-121852380D01*
X120528571Y-121947619D01*
X120528571Y-122090476D01*
X120600000Y-122185714D01*
X120671428Y-122233333D01*
X120814285Y-122280952D01*
X121242857Y-122280952D01*
X121385714Y-122233333D01*
X121457142Y-122185714D01*
X121528571Y-122090476D01*
X121528571Y-121947619D01*
X120528571Y-122709523D02*
X121528571Y-122709523D01*
X120671428Y-122709523D02*
X120600000Y-122757142D01*
X120528571Y-122852380D01*
X120528571Y-122995238D01*
X120600000Y-123090476D01*
X120742857Y-123138095D01*
X121528571Y-123138095D01*
X120742857Y-124376190D02*
X120742857Y-124709523D01*
X121528571Y-124852380D02*
X121528571Y-124376190D01*
X120028571Y-124376190D01*
X120028571Y-124852380D01*
X120528571Y-125185714D02*
X121528571Y-125423809D01*
X120528571Y-125661904D01*
X121528571Y-126471428D02*
X120742857Y-126471428D01*
X120600000Y-126423809D01*
X120528571Y-126328571D01*
X120528571Y-126138095D01*
X120600000Y-126042857D01*
X121457142Y-126471428D02*
X121528571Y-126376190D01*
X121528571Y-126138095D01*
X121457142Y-126042857D01*
X121314285Y-125995238D01*
X121171428Y-125995238D01*
X121028571Y-126042857D01*
X120957142Y-126138095D01*
X120957142Y-126376190D01*
X120885714Y-126471428D01*
X120528571Y-126947619D02*
X121528571Y-126947619D01*
X120671428Y-126947619D02*
X120600000Y-126995238D01*
X120528571Y-127090476D01*
X120528571Y-127233333D01*
X120600000Y-127328571D01*
X120742857Y-127376190D01*
X121528571Y-127376190D01*
X120957142Y-127852380D02*
X120957142Y-128614285D01*
X120742857Y-129423809D02*
X120814285Y-129566666D01*
X120885714Y-129614285D01*
X121028571Y-129661904D01*
X121242857Y-129661904D01*
X121385714Y-129614285D01*
X121457142Y-129566666D01*
X121528571Y-129471428D01*
X121528571Y-129090476D01*
X120028571Y-129090476D01*
X120028571Y-129423809D01*
X120100000Y-129519047D01*
X120171428Y-129566666D01*
X120314285Y-129614285D01*
X120457142Y-129614285D01*
X120600000Y-129566666D01*
X120671428Y-129519047D01*
X120742857Y-129423809D01*
X120742857Y-129090476D01*
X121528571Y-130090476D02*
X120528571Y-130090476D01*
X120814285Y-130090476D02*
X120671428Y-130138095D01*
X120600000Y-130185714D01*
X120528571Y-130280952D01*
X120528571Y-130376190D01*
X121528571Y-130852380D02*
X121457142Y-130757142D01*
X121385714Y-130709523D01*
X121242857Y-130661904D01*
X120814285Y-130661904D01*
X120671428Y-130709523D01*
X120600000Y-130757142D01*
X120528571Y-130852380D01*
X120528571Y-130995238D01*
X120600000Y-131090476D01*
X120671428Y-131138095D01*
X120814285Y-131185714D01*
X121242857Y-131185714D01*
X121385714Y-131138095D01*
X121457142Y-131090476D01*
X121528571Y-130995238D01*
X121528571Y-130852380D01*
X120528571Y-131519047D02*
X121528571Y-131709523D01*
X120814285Y-131900000D01*
X121528571Y-132090476D01*
X120528571Y-132280952D01*
X120528571Y-132661904D02*
X121528571Y-132661904D01*
X120671428Y-132661904D02*
X120600000Y-132709523D01*
X120528571Y-132804761D01*
X120528571Y-132947619D01*
X120600000Y-133042857D01*
X120742857Y-133090476D01*
X121528571Y-133090476D01*
X121528571Y-133566666D02*
X120528571Y-133566666D01*
X120028571Y-133566666D02*
X120100000Y-133519047D01*
X120171428Y-133566666D01*
X120100000Y-133614285D01*
X120028571Y-133566666D01*
X120171428Y-133566666D01*
X120528571Y-134042857D02*
X121528571Y-134042857D01*
X120671428Y-134042857D02*
X120600000Y-134090476D01*
X120528571Y-134185714D01*
X120528571Y-134328571D01*
X120600000Y-134423809D01*
X120742857Y-134471428D01*
X121528571Y-134471428D01*
X120528571Y-135376190D02*
X121742857Y-135376190D01*
X121885714Y-135328571D01*
X121957142Y-135280952D01*
X122028571Y-135185714D01*
X122028571Y-135042857D01*
X121957142Y-134947619D01*
X121457142Y-135376190D02*
X121528571Y-135280952D01*
X121528571Y-135090476D01*
X121457142Y-134995238D01*
X121385714Y-134947619D01*
X121242857Y-134900000D01*
X120814285Y-134900000D01*
X120671428Y-134947619D01*
X120600000Y-134995238D01*
X120528571Y-135090476D01*
X120528571Y-135280952D01*
X120600000Y-135376190D01*
M02*
