G04 #@! TF.GenerationSoftware,KiCad,Pcbnew,(2017-06-21 revision 375ec9f)-master*
G04 #@! TF.CreationDate,2017-08-04T21:16:05-04:00*
G04 #@! TF.ProjectId,light_reactive_nodes,6C696768745F72656163746976655F6E,rev?*
G04 #@! TF.SameCoordinates,Original
G04 #@! TF.FileFunction,Soldermask,Top*
G04 #@! TF.FilePolarity,Negative*
%FSLAX46Y46*%
G04 Gerber Fmt 4.6, Leading zero omitted, Abs format (unit mm)*
G04 Created by KiCad (PCBNEW (2017-06-21 revision 375ec9f)-master) date Fri Aug  4 21:16:05 2017*
%MOMM*%
%LPD*%
G01*
G04 APERTURE LIST*
%ADD10C,0.100000*%
%ADD11R,2.432000X1.924000*%
%ADD12O,2.100000X2.100000*%
%ADD13R,2.100000X2.100000*%
%ADD14R,1.400000X2.900000*%
%ADD15R,1.200000X1.300000*%
%ADD16R,1.900000X1.900000*%
%ADD17R,1.300000X1.200000*%
%ADD18C,1.900000*%
%ADD19R,1.300000X2.100000*%
%ADD20R,2.100000X1.300000*%
%ADD21R,2.200000X1.500000*%
G04 APERTURE END LIST*
D10*
D11*
X107940000Y-125690000D03*
X107940000Y-128230000D03*
X107940000Y-130770000D03*
X107940000Y-133310000D03*
X115560000Y-133310000D03*
X115560000Y-130770000D03*
X115560000Y-128230000D03*
X115560000Y-125690000D03*
D12*
X101660000Y-125920000D03*
X104200000Y-125920000D03*
X101660000Y-128460000D03*
X104200000Y-128460000D03*
X101660000Y-131000000D03*
D13*
X104200000Y-131000000D03*
D14*
X118900000Y-116400000D03*
X115900000Y-116400000D03*
D15*
X112850000Y-123200000D03*
X110750000Y-123200000D03*
D16*
X118350000Y-137000000D03*
X121650000Y-137000000D03*
X101750000Y-134200000D03*
X105050000Y-134200000D03*
D13*
X110400000Y-116400000D03*
D12*
X112940000Y-116400000D03*
D13*
X113000000Y-120200000D03*
D12*
X110460000Y-120200000D03*
D17*
X105600000Y-118650000D03*
X105600000Y-120550000D03*
X107600000Y-119600000D03*
X121200000Y-125250000D03*
X121200000Y-127150000D03*
X123200000Y-126200000D03*
D15*
X104200000Y-136200000D03*
X105150000Y-138200000D03*
X103250000Y-138200000D03*
D18*
X110000000Y-137200000D03*
X113400000Y-137200000D03*
D19*
X118150000Y-134600000D03*
X121050000Y-134600000D03*
X107450000Y-116400000D03*
X104550000Y-116400000D03*
D20*
X107500000Y-135800000D03*
X107500000Y-138700000D03*
X102600000Y-123250000D03*
X102600000Y-120350000D03*
D19*
X121050000Y-132000000D03*
X118150000Y-132000000D03*
X107650000Y-122800000D03*
X104750000Y-122800000D03*
X120850000Y-129400000D03*
X117950000Y-129400000D03*
D20*
X116000000Y-138450000D03*
X116000000Y-135550000D03*
D21*
X116300000Y-119350000D03*
X122500000Y-119350000D03*
X116300000Y-123050000D03*
X122500000Y-123050000D03*
M02*
