G04 #@! TF.GenerationSoftware,KiCad,Pcbnew,(2017-06-21 revision 375ec9f)-master*
G04 #@! TF.CreationDate,2017-07-22T22:15:58-04:00*
G04 #@! TF.ProjectId,light_reactive_nodes,6C696768745F72656163746976655F6E,rev?*
G04 #@! TF.SameCoordinates,Original
G04 #@! TF.FileFunction,Copper,L2,Bot,Signal*
G04 #@! TF.FilePolarity,Positive*
%FSLAX46Y46*%
G04 Gerber Fmt 4.6, Leading zero omitted, Abs format (unit mm)*
G04 Created by KiCad (PCBNEW (2017-06-21 revision 375ec9f)-master) date Sat Jul 22 22:15:58 2017*
%MOMM*%
%LPD*%
G01*
G04 APERTURE LIST*
%ADD10C,0.100000*%
%ADD11O,1.700000X1.700000*%
%ADD12R,1.700000X1.700000*%
%ADD13C,1.500000*%
%ADD14C,0.800000*%
%ADD15C,0.250000*%
G04 APERTURE END LIST*
D10*
D11*
X101660000Y-125920000D03*
X104200000Y-125920000D03*
X101660000Y-128460000D03*
X104200000Y-128460000D03*
X101660000Y-131000000D03*
D12*
X104200000Y-131000000D03*
X110400000Y-116400000D03*
D11*
X112940000Y-116400000D03*
D12*
X113000000Y-120200000D03*
D11*
X110460000Y-120200000D03*
D13*
X110000000Y-137200000D03*
X113400000Y-137200000D03*
D14*
X121000000Y-116600000D03*
X106000000Y-132400000D03*
X101600000Y-137000000D03*
X119800000Y-127600000D03*
X122200000Y-129600000D03*
X102800000Y-118800000D03*
X113600000Y-126000000D03*
X113600000Y-128200000D03*
X116200000Y-121200000D03*
X114200000Y-124200000D03*
X113600000Y-131000000D03*
D15*
X110400000Y-116400000D02*
X110400000Y-117500000D01*
X110400000Y-117500000D02*
X110475001Y-117575001D01*
X110475001Y-117575001D02*
X120024999Y-117575001D01*
X120024999Y-117575001D02*
X121000000Y-116600000D01*
X106000000Y-132400000D02*
X101320998Y-132400000D01*
X100484999Y-127095001D02*
X100810001Y-126769999D01*
X101320998Y-132400000D02*
X100484999Y-131564001D01*
X100484999Y-131564001D02*
X100484999Y-127095001D01*
X100810001Y-126769999D02*
X101660000Y-125920000D01*
X106000000Y-132600000D02*
X106000000Y-132400000D01*
X101600000Y-137000000D02*
X106000000Y-132600000D01*
X110400000Y-116400000D02*
X102600000Y-116400000D01*
X100400000Y-124660000D02*
X101660000Y-125920000D01*
X100400000Y-118600000D02*
X100400000Y-124660000D01*
X102600000Y-116400000D02*
X100400000Y-118600000D01*
X120200000Y-127600000D02*
X119800000Y-127600000D01*
X122200000Y-129600000D02*
X120200000Y-127600000D01*
X102835001Y-129824999D02*
X102835001Y-122200000D01*
X102835001Y-122200000D02*
X102835001Y-118835001D01*
X113000000Y-120200000D02*
X113000000Y-121300000D01*
X113000000Y-121300000D02*
X112100000Y-122200000D01*
X112100000Y-122200000D02*
X102835001Y-122200000D01*
X101660000Y-131000000D02*
X102835001Y-129824999D01*
X102835001Y-118835001D02*
X102800000Y-118800000D01*
X113400000Y-137200000D02*
X113400000Y-133200000D01*
X115200000Y-127600000D02*
X113600000Y-126000000D01*
X115200000Y-131400000D02*
X115200000Y-127600000D01*
X113400000Y-133200000D02*
X115200000Y-131400000D01*
X113600000Y-128200000D02*
X113340000Y-128460000D01*
X113340000Y-128460000D02*
X104200000Y-128460000D01*
X116200000Y-122200000D02*
X116200000Y-121200000D01*
X114200000Y-124200000D02*
X116200000Y-122200000D01*
X104200000Y-131000000D02*
X113600000Y-131000000D01*
M02*
